<?xml version="1.0" standalone="no"?>
<!DOCTYPE svg PUBLIC "-//W3C//DTD SVG 1.1//EN" "http://www.w3.org/Graphics/SVG/1.1/DTD/svg11.dtd" >
<svg xmlns="http://www.w3.org/2000/svg" xmlns:xlink="http://www.w3.org/1999/xlink" version="1.1">
<metadata>
Created by FontForge 20220308 at Fri Apr 26 13:18:07 2024
 By mattl
2023
</metadata>
<defs>
<font id="ObleggExtendedTestRegular" horiz-adv-x="1271" >
  <font-face
    font-family="Oblegg"
    font-weight="400"
    font-stretch="normal"
    font-style="ObleggExtendedTest"
    units-per-em="2048"
    panose-1="0 0 0 0 0 0 0 0 0 0"
    ascent="1638"
    descent="-410"
    x-height="1019"
    cap-height="1490"
    bbox="-340.144 -450 1635.52 1700"
    underline-thickness="0"
    underline-position="0"
    unicode-range="U+0001-1034A"
  />
<missing-glyph horiz-adv-x="919"
d="M0 0v1490h920v-1490h-920zM106 1384v-1278h707v1278h-707z" />
    <glyph glyph-name="lig.f.f.i" unicode="ffi" horiz-adv-x="1422"
d="M490 5c0 -3 2 -5 5 -5h336c3 0 5 2 5 5v155c0 3 -2 5 -5 5h-85v690h205c3 0 5 2 5 5v155c0 3 -2 5 -5 5h-205v91c0 176 72 228 218 228c54 0 113 -6 157 -12c13 -2 21 -1 25 16l34 123c3 14 1 23 -17 27c-67 15 -172 17 -199 17c-378 0 -383 -284 -383 -434v-56h-86
c-3 0 -5 -2 -5 -5v-155c0 -3 2 -5 5 -5h86v-690h-86c-3 0 -5 -2 -5 -5v-155zM1050 860c0 -3 2 -5 5 -5h85v-690h-75c-3 0 -5 -2 -5 -5v-155c0 -3 2 -5 5 -5h312c3 0 5 2 5 5v155c0 3 -2 5 -5 5h-72v773c0 46 -36 82 -82 82h-168c-3 0 -5 -2 -5 -5v-155zM1066 1261
c0 -31 13 -57 36 -74c20 -15 47 -23 79 -23s59 8 79 23c23 17 36 43 36 74c0 64 -52 116 -115 116s-115 -52 -115 -116zM1161 1494c-187 31 -67 -70 -31 -173s140 -146 162 -89s27 236 -131 262zM757 1020v-165h429v165h-429zM40 5c0 -3 2 -5 5 -5h336c3 0 5 2 5 5v155
c0 3 -2 5 -5 5h-85v690h205c3 0 5 2 5 5v155c0 3 -2 5 -5 5h-205v91c0 176 72 228 218 228c54 0 113 -6 157 -12c13 -2 21 -1 25 16l34 123c3 14 1 23 -17 27c-67 15 -172 17 -199 17c-378 0 -383 -284 -383 -434v-56h-86c-3 0 -5 -2 -5 -5v-155c0 -3 2 -5 5 -5h86v-690h-86
c-3 0 -5 -2 -5 -5v-155zM714 1492c-185 43 -92 -140 -92 -140s226 109 92 140z" />
    <glyph glyph-name="lig.f.f.l" unicode="ffl" horiz-adv-x="1362"
d="M60 5c0 -3 2 -5 5 -5h336c3 0 5 2 5 5v155c0 3 -2 5 -5 5h-85v690h205c3 0 5 2 5 5v155c0 3 -2 5 -5 5h-205v91c0 176 72 228 218 228c54 0 113 -6 157 -12c13 -2 21 -1 25 16l34 123c3 14 1 23 -17 27c-67 15 -172 17 -199 17c-378 0 -383 -284 -383 -434v-56h-86
c-3 0 -5 -2 -5 -5v-155c0 -3 2 -5 5 -5h86v-690h-86c-3 0 -5 -2 -5 -5v-155zM510 5c0 -3 2 -5 5 -5h336c3 0 5 2 5 5v155c0 3 -2 5 -5 5h-85v690h205c3 0 5 2 5 5v155c0 3 -2 5 -5 5h-205v91c0 176 72 228 218 228c54 0 113 -6 157 -12c13 -2 21 -1 25 16l34 123
c3 14 1 23 -17 27c-67 15 -172 17 -199 17c-378 0 -383 -284 -383 -434v-56h-86c-3 0 -5 -2 -5 -5v-155c0 -3 2 -5 5 -5h86v-690h-86c-3 0 -5 -2 -5 -5v-155zM756 1492c-185 43 -92 -140 -92 -140s226 109 92 140zM1066 165h-85c-3 0 -5 -2 -5 -5v-155c0 -3 2 -5 5 -5h336
c3 0 5 2 5 5v155c0 3 -2 5 -5 5h-85l-1 1245c0 46 -37 83 -83 83l-82 -128v-1200z" />
    <glyph glyph-name="lig.f.f" unicode="ff" horiz-adv-x="1241"
d="M40 5c0 -3 2 -5 5 -5h336c3 0 5 2 5 5v155c0 3 -2 5 -5 5h-85v690h205c3 0 5 2 5 5v155c0 3 -2 5 -5 5h-205v91c0 176 72 228 218 228c54 0 113 -6 157 -12c13 -2 21 -1 25 16l34 123c3 14 1 23 -17 27c-67 15 -172 17 -199 17c-378 0 -383 -284 -383 -434v-56h-86
c-3 0 -5 -2 -5 -5v-155c0 -3 2 -5 5 -5h86v-690h-86c-3 0 -5 -2 -5 -5v-155zM490 5c0 -3 2 -5 5 -5h336c3 0 5 2 5 5v155c0 3 -2 5 -5 5h-85v690h205c3 0 5 2 5 5v155c0 3 -2 5 -5 5h-205v91c0 176 72 228 218 228c54 0 113 -6 157 -12c13 -2 21 -1 25 16l34 123
c3 14 1 23 -17 27c-67 15 -172 17 -199 17c-378 0 -383 -284 -383 -434v-56h-86c-3 0 -5 -2 -5 -5v-155c0 -3 2 -5 5 -5h86v-690h-86c-3 0 -5 -2 -5 -5v-155zM736 1492c-185 43 -92 -140 -92 -140s226 109 92 140z" />
    <glyph glyph-name="lig.f.i" unicode="fi" horiz-adv-x="992"
d="M40 5c0 -3 2 -5 5 -5h336c3 0 5 2 5 5v155c0 3 -2 5 -5 5h-85v690h205c3 0 5 2 5 5v155c0 3 -2 5 -5 5h-205v91c0 176 72 228 218 228c54 0 113 -6 157 -12c13 -2 21 -1 25 16l34 123c3 14 1 23 -17 27c-67 15 -172 17 -199 17c-378 0 -383 -284 -383 -434v-56h-86
c-3 0 -5 -2 -5 -5v-155c0 -3 2 -5 5 -5h86v-690h-86c-3 0 -5 -2 -5 -5v-155zM600 860c0 -3 2 -5 5 -5h85v-690h-75c-3 0 -5 -2 -5 -5v-155c0 -3 2 -5 5 -5h312c3 0 5 2 5 5v155c0 3 -2 5 -5 5h-72v773c0 46 -36 82 -82 82h-168c-3 0 -5 -2 -5 -5v-155zM616 1261
c0 -31 13 -57 36 -74c20 -15 47 -23 79 -23s59 8 79 23c23 17 36 43 36 74c0 64 -52 116 -115 116s-115 -52 -115 -116zM711 1494c-187 31 -67 -70 -31 -173s140 -146 162 -89s27 236 -131 262zM307 1020v-165h429v165h-429z" />
    <glyph glyph-name="lig.f.l" unicode="fl" horiz-adv-x="916"
d="M40 5c0 -3 2 -5 5 -5h336c3 0 5 2 5 5v155c0 3 -2 5 -5 5h-85v690h205c3 0 5 2 5 5v155c0 3 -2 5 -5 5h-205v91c0 176 72 228 218 228c54 0 113 -6 157 -12c13 -2 21 -1 25 16l34 123c3 14 1 23 -17 27c-67 15 -172 17 -199 17c-378 0 -383 -284 -383 -434v-56h-86
c-3 0 -5 -2 -5 -5v-155c0 -3 2 -5 5 -5h86v-690h-86c-3 0 -5 -2 -5 -5v-155zM620 165h-85c-3 0 -5 -2 -5 -5v-155c0 -3 2 -5 5 -5h336c3 0 5 2 5 5v155c0 3 -2 5 -5 5h-85l-1 1245c0 46 -37 83 -83 83l-82 -128v-1200z" />
    <glyph glyph-name=".notdef" horiz-adv-x="919"
d="M0 0v1490h920v-1490h-920zM106 1384v-1278h707v1278h-707z" />
    <glyph glyph-name="space" unicode=" " horiz-adv-x="400"
 />
    <glyph glyph-name="exclam" unicode="!" horiz-adv-x="280"
d="M194 1509h-104c-28 0 -50 -22 -50 -50l20 -1177c0 -12 11 -22 23 -22h115c12 0 22 10 22 22l20 1177c0 28 -18 50 -46 50zM140 177c-55 0 -100 -50 -100 -112c0 -76 70 -85 100 -85s100 9 100 85c0 62 -45 112 -100 112z" />
    <glyph glyph-name="quotedbl" unicode="&#x22;" horiz-adv-x="370"
d="M40 1240l-20 300h150l-20 -300h-110zM220 1240l-20 300h150l-20 -300h-110z" />
    <glyph glyph-name="numbersign" unicode="#" horiz-adv-x="1103"
d="M45 317h234l-27 -313c0 -2 2 -4 5 -4h120c3 0 5 2 5 4l27 313h254l-27 -313c0 -2 2 -4 5 -4h120c3 0 5 2 5 4l27 313h235c3 0 5 2 5 5l10 120c0 3 -2 5 -5 5h-234l24 268h220c3 0 5 2 5 5l10 120c0 3 -2 5 -5 5h-219l27 301c0 2 -2 4 -5 4h-120c-3 0 -5 -2 -5 -4
l-27 -301h-254l27 301c0 2 -2 4 -5 4h-120c-3 0 -5 -2 -5 -4l-27 -301h-250c-3 0 -5 -2 -5 -5l-10 -120c0 -3 2 -5 5 -5h249l-24 -268h-235c-3 0 -5 -2 -5 -5l-10 -120c0 -3 2 -5 5 -5zM444 715h254l-24 -268h-254z" />
    <glyph glyph-name="dollar" unicode="$" horiz-adv-x="856"
d="M483 838v404h112v-70c0 -3 2 -5 5 -5h140c3 0 5 2 5 5v56v93c0 39 -32 71 -71 71h-191v133c0 3 -2 5 -5 5h-130c-3 0 -5 -2 -5 -5v-141c-140 -27 -291 -124 -291 -368c0 -132 102 -284 291 -318v-440h-67h-86v69c0 3 -2 5 -5 5h-140c-3 0 -5 -2 -5 -5v-147
c0 -39 31 -71 70 -72h233v-103c0 -3 2 -5 5 -5h130c3 0 5 2 5 5v106c345 26 333 285 333 337c0 100 -24 362 -333 390zM202 1016c0 102 38 186 141 215v-382c-124 28 -141 120 -141 167zM483 261v427c165 -18 184 -117 184 -240c0 -55 -4 -167 -184 -187z" />
    <glyph glyph-name="percent" unicode="%" horiz-adv-x="866"
d="M826 1490h-140l-645 -1460l-1 -30h152l634 1460v30zM95 1167c31 -22 72 -34 121 -34s91 12 122 34c36 26 55 66 55 114c0 98 -80 179 -177 179s-176 -81 -176 -179c0 -48 19 -88 55 -114zM216 1364c38 0 69 -35 69 -77c0 -52 -48 -58 -69 -58s-68 6 -68 58
c0 42 30 77 68 77zM474 148c0 -48 19 -88 55 -114c31 -22 72 -34 121 -34s90 12 121 34c36 26 55 66 55 114c0 98 -79 179 -176 179s-176 -81 -176 -179zM718 154c0 -52 -47 -58 -68 -58s-68 6 -68 58c0 42 30 77 68 77s68 -35 68 -77z" />
    <glyph glyph-name="ampersand" unicode="&#x26;" horiz-adv-x="1117"
d="M942 151c56 72 94 171 97 300v2v14v20c0 3 -2 5 -5 5h-139c-3 0 -5 -2 -5 -5v-22c0 -80 -20 -145 -51 -196c-123 144 -268 327 -372 496c9 4 19 7 29 11c302 72 315 244 315 348c0 211 -110 383 -320 383s-310 -144 -310 -403c0 -81 33 -179 85 -282
c-148 -111 -226 -282 -226 -405c0 -142 56 -258 162 -336c90 -66 215 -101 358 -101c89 0 187 22 272 74c26 -28 44 -47 49 -52l3 -1h188c4 0 6 6 3 9c-20 19 -69 70 -133 141zM330 1112c0 150 50 262 161 262c126 0 181 -102 181 -252c0 -184 -162 -186 -239 -214
c-13 -4 -26 -8 -38 -13c-41 83 -65 157 -65 217zM560 115c-99 0 -371 48 -371 300c0 131 47 215 147 282c119 -196 281 -397 398 -532c-57 -34 -120 -50 -174 -50z" />
    <glyph glyph-name="quotesingle" unicode="'" horiz-adv-x="190"
d="M40 1240l-20 300h150l-20 -300h-110z" />
    <glyph glyph-name="parenleft" unicode="(" horiz-adv-x="722"
d="M677 1700h-7c-214 0 -379 -70 -497 -240c-35 -50 -105 -144 -122 -349c-16 -190 -13 -572 0 -762c14 -205 87 -299 122 -349c118 -170 283 -240 497 -240h7c3 0 5 2 5 5v155c0 3 -2 5 -5 5h-7c-157 0 -270 60 -356 183c-73 105 -95 232 -98 528v187c3 296 25 424 98 529
c86 123 199 183 356 183h7c3 0 5 2 5 5v155c0 3 -2 5 -5 5z" />
    <glyph glyph-name="parenright" unicode=")" horiz-adv-x="722"
d="M52 1700h-7c-3 0 -5 -2 -5 -5v-155c0 -3 2 -5 5 -5h7c157 0 270 -60 356 -183c73 -105 95 -233 98 -529v-187c-3 -296 -25 -423 -98 -528c-86 -123 -199 -183 -356 -183h-7c-3 0 -5 -2 -5 -5v-155c0 -3 2 -5 5 -5h7c214 0 379 70 497 240c35 50 108 144 122 349
c13 190 16 572 0 762c-17 205 -87 299 -122 349c-118 170 -283 240 -497 240z" />
    <glyph glyph-name="asterisk" unicode="*" horiz-adv-x="860"
d="M299 1102c0 0 6 -1 9 -4l2 -3h-1l1 -2l1 -2v-3c-1 -4 -5 -8 -5 -8l-151 -184c-13 -18 -10 -42 6 -54l38 -28l39 -28c16 -12 40 -6 53 12l127 200s3 5 6 7l4 1h2h2l4 -1c3 -2 6 -7 6 -7l127 -200c13 -18 38 -24 54 -12l38 28l39 28c16 12 18 36 5 54l-151 184s-4 4 -5 8v3
h1v2l1 2h-1l2 3c3 3 9 4 9 4l230 59c21 7 33 28 27 47l-14 46l-15 45c-6 19 -29 29 -50 22l-221 -87s-5 -3 -9 -2l-3 1l-2 1l-1 2l-1 -1l-2 3c-2 3 -1 10 -1 10l15 237c0 22 -16 40 -36 40h-95c-20 0 -37 -18 -37 -40l15 -237s1 -7 -1 -10l-2 -3l-1 1l-1 -2l-2 -1l-3 -1
c-4 -1 -9 2 -9 2l-221 87c-21 7 -44 -3 -50 -22l-15 -45l-14 -46c-6 -19 6 -40 27 -47z" />
    <glyph glyph-name="plus" unicode="+" horiz-adv-x="580"
d="M40 480v150h500v-150h-500zM215 805h150v-500h-150v500z" />
    <glyph glyph-name="comma" unicode="," horiz-adv-x="310"
d="M40 97c0 -31 13 -57 36 -74c20 -15 47 -23 79 -23s59 8 79 23c23 17 36 43 36 74c0 64 -52 116 -115 116s-115 -52 -115 -116zM146 0c0 -58 -85 -120 -85 -120l46 -62s163 88 163 284c-42 16 -62 41 -62 41l-88 -49s26 -36 26 -94z" />
    <glyph glyph-name="hyphen" unicode="-" horiz-adv-x="540"
d="M20 480v150h500v-150h-500z" />
    <glyph glyph-name="period" unicode="." horiz-adv-x="310"
d="M40 97c0 -31 13 -57 36 -74c20 -15 47 -23 79 -23s59 8 79 23c23 17 36 43 36 74c0 64 -52 116 -115 116s-115 -52 -115 -116z" />
    <glyph glyph-name="slash" unicode="/" horiz-adv-x="657"
d="M617 1460v30h-172l-405 -1460v-30h161z" />
    <glyph glyph-name="zero" unicode="0" horiz-adv-x="1160"
d="M580 1530c-533 0 -540 -556 -540 -826c0 -486 158 -704 540 -704c369 0 540 184 540 704c0 295 -3 826 -540 826zM580 155c-331 0 -366 286 -366 546c0 326 35 674 366 674c350 0 365 -348 365 -674c0 -256 -9 -546 -365 -546z" />
    <glyph glyph-name="one" unicode="1" horiz-adv-x="373"
d="M44 1268l123 -38v-1225c0 -3 2 -5 5 -5h156c3 0 5 2 5 5v1405c0 44 -36 80 -80 80h-116c-24 -100 -81 -191 -96 -214c-2 -3 0 -7 3 -8z" />
    <glyph glyph-name="two" unicode="2" horiz-adv-x="895"
d="M741 791c107 107 114 189 114 283c0 241 -194 436 -442 436c-148 0 -279 -76 -357 -191l123 -95c48 88 135 147 234 147c151 0 274 -128 274 -299c0 -68 -3 -123 -77 -197c-180 -180 -570 -364 -570 -714v-1v-155c0 -3 2 -5 5 -5h780c3 0 5 2 5 5v155c0 3 -2 5 -5 5h-598
c-72 232 348 460 514 626z" />
    <glyph glyph-name="three" unicode="3" horiz-adv-x="1003"
d="M817 775c102 82 124 217 124 368c0 123 -48 223 -140 290c-78 57 -183 87 -307 87s-318 -20 -444 -226l130 -71c71 124 172 153 314 153c86 0 293 -14 293 -231c0 -170 5 -291 -249 -301h-55c-26 0 -47 -21 -47 -47v-60c0 -26 21 -47 47 -47h16c300 0 315 -128 315 -311
c0 -225 -236 -240 -325 -240c-148 0 -230 76 -294 169l-145 -73c24 -62 64 -113 119 -154c81 -59 192 -91 320 -91s258 32 339 91c95 70 145 173 145 300c0 170 -27 315 -156 394z" />
    <glyph glyph-name="four" unicode="4" horiz-adv-x="795"
d="M87 623h502v-618c0 -3 2 -5 5 -5h156c3 0 5 2 5 5v1348c0 44 -36 80 -80 80h-81c-3 0 -5 -2 -5 -5v-645h-383v570c0 44 -36 80 -80 80h-81c-3 0 -5 -2 -5 -5v-758c0 -26 21 -47 47 -47z" />
    <glyph glyph-name="five" unicode="5" horiz-adv-x="1003"
d="M512 840h-269v485h631c3 0 5 2 5 5v155c0 3 -2 5 -5 5h-717c-44 0 -80 -36 -80 -80v-650c0 -44 36 -80 80 -80h352c300 0 295 -128 295 -311c0 -225 -236 -240 -325 -240c-148 0 -230 76 -294 169l-145 -73c24 -62 64 -113 119 -154c81 -59 192 -91 320 -91
s258 32 339 91c95 70 145 173 145 300c0 258 -63 468 -451 469z" />
    <glyph glyph-name="six" unicode="6" horiz-adv-x="1047"
d="M542 840c-126 0 -240 -51 -324 -134c16 232 63 338 129 432c86 123 164 193 417 193h1h105c3 0 6 2 6 5v155c0 3 -3 5 -6 5h-106c-255 0 -430 -90 -548 -260c-52 -75 -176 -283 -176 -713c0 -162 28 -262 86 -345c23 -40 54 -76 93 -105c10 -9 19 -15 25 -17
c79 -50 180 -76 298 -76c128 0 239 32 320 91c95 70 145 173 145 300c0 259 -209 469 -465 469zM542 119c-89 0 -295 25 -295 250c0 183 132 332 295 332s296 -149 296 -332c0 -225 -207 -250 -296 -250z" />
    <glyph glyph-name="seven" unicode="7" horiz-adv-x="972"
d="M819 1490h-774c-3 0 -5 -2 -5 -5v-150c0 -3 2 -5 5 -5h656l-217 -490h-278c-3 0 -5 -2 -5 -5v-155c0 -3 2 -5 5 -5h205l-285 -645l-1 -30h172l635 1460l-1 30h-112z" />
    <glyph glyph-name="eight" unicode="8" horiz-adv-x="1009"
d="M40 371c0 -127 50 -230 145 -300c81 -59 192 -91 320 -91s238 32 319 91c95 70 145 173 145 300c0 165 -85 311 -213 395c16 9 32 17 46 28c88 65 134 162 134 280c0 241 -193 436 -431 436s-432 -195 -432 -436c0 -118 47 -215 135 -280c14 -11 30 -19 46 -28
c-128 -84 -214 -230 -214 -395zM230 1072c0 171 124 309 275 309s274 -138 274 -309c0 -193 -163 -228 -253 -232h-21h-21c-90 4 -254 39 -254 232zM505 701c163 0 295 -149 295 -332c0 -225 -206 -250 -295 -250s-296 25 -296 250c0 183 133 332 296 332z" />
    <glyph glyph-name="nine" unicode="9" horiz-adv-x="1009"
d="M969 1006v1v22l-1 3v1c-14 246 -216 442 -463 442c-256 0 -465 -210 -465 -469c0 -127 50 -230 145 -300c81 -59 192 -91 320 -91c113 0 211 24 288 70c-11 -167 -36 -258 -91 -337c-85 -122 -197 -182 -352 -183h-96c-3 0 -5 -2 -5 -5v-155c0 -3 2 -5 5 -5h96
c211 1 366 81 483 250c52 75 136 234 136 756zM505 754c-89 0 -296 25 -296 250c0 183 133 332 296 332s295 -149 295 -332c0 -225 -206 -250 -295 -250z" />
    <glyph glyph-name="colon" unicode=":" horiz-adv-x="310"
d="M40 297c0 -31 13 -57 36 -74c20 -15 47 -23 79 -23s59 8 79 23c23 17 36 43 36 74c0 64 -52 116 -115 116s-115 -52 -115 -116zM40 897c0 -31 13 -57 36 -74c20 -15 47 -23 79 -23s59 8 79 23c23 17 36 43 36 74c0 64 -52 116 -115 116s-115 -52 -115 -116z" />
    <glyph glyph-name="semicolon" unicode=";" horiz-adv-x="310"
d="M40 97c0 -31 13 -57 36 -74c20 -15 47 -23 79 -23s59 8 79 23c23 17 36 43 36 74c0 64 -52 116 -115 116s-115 -52 -115 -116zM146 0c0 -58 -85 -120 -85 -120l46 -62s163 88 163 284c-42 16 -62 41 -62 41l-88 -49s26 -36 26 -94zM40 697c0 -31 13 -57 36 -74
c20 -15 47 -23 79 -23s59 8 79 23c23 17 36 43 36 74c0 64 -52 116 -115 116s-115 -52 -115 -116z" />
    <glyph glyph-name="less" unicode="&#x3c;" horiz-adv-x="853"
d="M40 593v-180l743 -324l30 -1v172l-567 243l567 243v172l-30 -1z" />
    <glyph glyph-name="equal" unicode="=" horiz-adv-x="590"
d="M20 320v150h550v-150h-550zM20 560v150h550v-150h-550z" />
    <glyph glyph-name="greater" unicode="&#x3e;" horiz-adv-x="853"
d="M813 413v180l-743 324l-30 1v-172l567 -243l-567 -243v-172l30 1z" />
    <glyph glyph-name="question" unicode="?" horiz-adv-x="836"
d="M329 177c-55 0 -100 -50 -100 -112c0 -76 70 -85 100 -85s100 9 100 85c0 62 -45 112 -100 112zM331 1508c-109 0 -210 -38 -289 -102c-2 -2 -3 -6 -1 -8l101 -100c2 -2 5 -2 7 0c50 45 113 71 182 71c163 0 296 -149 296 -332s-137 -234 -236 -246h-128
c-11 0 -20 -10 -20 -21l3 -73v-11v-4l8 -400c0 -12 10 -22 22 -22h105c12 0 23 10 23 22l6 370c95 10 177 40 241 87c95 70 145 173 145 300c0 259 -209 469 -465 469z" />
    <glyph glyph-name="at" unicode="@" horiz-adv-x="1242"
d="M621 988c-332 0 -581 -272 -581 -607c0 -164 45 -299 168 -389c100 -73 233 -113 389 -117h3h111c11 0 20 9 20 20v84c0 11 -9 20 -20 20h-90c-139 0 -453 36 -453 369c0 271 197 491 453 491s463 -220 463 -491c0 -90 -36 -179 -179 -180h-3h-49v148v120
c0 91 45 263 -281 263c-75 0 -155 -21 -175 -29c-10 -4 -12 -8 -10 -17l21 -74c3 -10 7 -12 15 -10c21 5 79 32 149 32c175 0 177 -32 177 -138v-37c-38 31 -86 49 -141 49c-132 0 -227 -96 -227 -229c0 -65 51 -190 233 -190c59 0 110 17 148 35c9 -13 24 -22 41 -22h91h37
c164 0 271 134 271 291c0 335 -249 608 -581 608zM753 217c0 0 -37 -58 -139 -58c-42 0 -134 0 -134 107c0 87 51 146 128 146s145 -45 145 -117v-78z" />
    <glyph glyph-name="A" unicode="A" horiz-adv-x="1252"
d="M1212 169c0 3 -2 5 -5 5h-94l-358 1142h45c3 0 5 2 5 5v164c0 3 -2 5 -5 5h-361c-3 0 -5 -2 -5 -5v-164c0 -3 2 -5 5 -5h45l-358 -1142h-81c-3 0 -5 -2 -5 -5v-164c0 -3 2 -5 5 -5h326c3 0 5 2 5 5v164c0 3 -2 5 -5 5h-82l89 282h473l89 -282h-68c-3 0 -5 -2 -5 -5v-164
c0 -3 2 -5 5 -5h335c3 0 5 2 5 5v164zM797 630h-365l182 581z" />
    <glyph glyph-name="B" unicode="B" horiz-adv-x="1052"
d="M1012 396c0 93 -34 290 -180 387c74 79 108 186 108 275c0 122 -33 425 -362 432h-533c-3 0 -5 -2 -5 -5v-162c0 -3 2 -5 5 -5h105v-1146h-105c-3 0 -5 -2 -5 -5v-162c0 -3 2 -5 5 -5h583c310 0 384 230 384 396zM322 1318h243c167 0 231 -93 231 -260
c0 -120 -88 -218 -230 -218h-244v478zM864 396c0 -123 -90 -224 -236 -224h-306v493h306c171 0 236 -97 236 -269z" />
    <glyph glyph-name="C" unicode="C" horiz-adv-x="1062"
d="M847 1261c0 -3 2 -5 5 -5h165c3 0 5 2 5 5v146c0 46 -37 83 -83 83h-235c-214 0 -390 -90 -508 -260c-52 -75 -92 -164 -118 -265c-25 -95 -38 -199 -38 -308c0 -226 55 -389 167 -498c110 -107 272 -159 497 -159h235c46 0 83 37 83 83v141c0 3 -2 5 -5 5h-165
c-3 0 -5 -2 -5 -5v-52h-143c-354 0 -492 136 -492 485c0 190 44 359 125 475c86 123 210 186 367 186h143v-57z" />
    <glyph glyph-name="D" unicode="D" horiz-adv-x="1167"
d="M40 5c0 -3 2 -5 5 -5h418c225 0 387 52 497 159c112 109 167 272 167 498c0 109 -12 213 -37 308c-26 101 -67 190 -119 265c-118 170 -294 260 -508 260h-418c-3 0 -5 -2 -5 -5v-162c0 -3 2 -5 5 -5h103v-1146h-103c-3 0 -5 -2 -5 -5v-162zM320 1318h143
c157 0 281 -63 367 -186c81 -116 125 -285 125 -475c0 -349 -138 -485 -492 -485h-143v1146z" />
    <glyph glyph-name="E" unicode="E" horiz-adv-x="1001"
d="M787 1316v-84c0 -3 2 -5 5 -5h164c3 0 5 2 5 5v258h-916c-3 0 -5 -2 -5 -5v-164c0 -3 2 -5 5 -5h56v-1142h-56c-3 0 -5 -2 -5 -5v-164c0 -3 2 -5 5 -5h916v258c0 3 -2 5 -5 5h-164c-3 0 -5 -2 -5 -5v-84h-513v491h309c3 0 5 2 5 5v165c0 3 -2 5 -5 5h-309v476h513z" />
    <glyph glyph-name="F" unicode="F" horiz-adv-x="1003"
d="M103 174h-58c-3 0 -5 -2 -5 -5v-164c0 -3 2 -5 5 -5h326c3 0 5 2 5 5v164c0 3 -2 5 -5 5h-95v491h324c3 0 5 2 5 5v165c0 3 -2 5 -5 5h-324v476h513v-84c0 -3 2 -5 5 -5h164c3 0 5 2 5 5v258h-918c-3 0 -5 -2 -5 -5v-164c0 -3 2 -5 5 -5h58v-1142z" />
    <glyph glyph-name="G" unicode="G" horiz-adv-x="1299"
d="M40 684c0 -486 228 -704 610 -704c180 0 328 43 434 148v-124c0 -3 2 -5 5 -5h165c3 0 5 2 5 5v621c0 3 -2 5 -5 5h-540c-3 0 -5 -2 -5 -5v-165c0 -3 2 -5 5 -5h344c-41 -164 -147 -297 -408 -297c-346 0 -432 276 -432 526c0 313 77 648 432 648
c209 0 322 -117 379 -278l173 41c-72 219 -227 415 -552 415c-533 0 -610 -556 -610 -826z" />
    <glyph glyph-name="H" unicode="H" horiz-adv-x="1221"
d="M40 5c0 -3 2 -5 5 -5h326c3 0 5 2 5 5v164c0 3 -2 5 -5 5h-79v491h637v-491h-79c-3 0 -5 -2 -5 -5v-164c0 -3 2 -5 5 -5h326c3 0 5 2 5 5v164c0 3 -2 5 -5 5h-74v1142h74c3 0 5 2 5 5v164c0 3 -2 5 -5 5h-326c-3 0 -5 -2 -5 -5v-164c0 -3 2 -5 5 -5h79v-476h-637v476h79
c3 0 5 2 5 5v164c0 3 -2 5 -5 5h-326c-3 0 -5 -2 -5 -5v-164c0 -3 2 -5 5 -5h74v-1142h-74c-3 0 -5 -2 -5 -5v-164z" />
    <glyph glyph-name="I" unicode="I" horiz-adv-x="1096"
d="M40 0h1016v231c0 3 -2 5 -5 5h-164c-3 0 -5 -2 -5 -5v-57h-253v1142h253v-60c0 -3 2 -5 5 -5h164c3 0 5 2 5 5v234h-1016v-234c0 -3 2 -5 5 -5h164c3 0 5 2 5 5v60h241v-1142h-241v57c0 3 -2 5 -5 5h-164c-3 0 -5 -2 -5 -5v-231z" />
    <glyph glyph-name="J" unicode="J" horiz-adv-x="1009"
d="M969 1485c0 3 -2 5 -5 5h-748c-3 0 -5 -2 -5 -5v-164c0 -3 2 -5 5 -5h531v-606c0 -9 1 -17 1 -26c0 -246 -60 -528 -434 -530h-100v79c0 3 -2 5 -5 5h-164c-3 0 -5 -2 -5 -5v-170c0 -46 37 -83 83 -83h191c367 1 606 186 606 704v26v606h44c3 0 5 2 5 5v164z" />
    <glyph glyph-name="K" unicode="K" horiz-adv-x="1100"
d="M371 0c3 0 5 2 5 5v164c0 3 -2 5 -5 5h-79v491h69l417 -491h-49c-3 0 -5 -2 -5 -5v-164c0 -3 2 -5 5 -5h326c3 0 5 2 5 5v164c0 3 -2 5 -5 5h-51l-529 622l416 520h94c3 0 5 2 5 5v164c0 3 -2 5 -5 5h-326c-3 0 -5 -2 -5 -5v-164c0 -3 2 -5 5 -5h55l-394 -476h-28v476h79
c3 0 5 2 5 5v164c0 3 -2 5 -5 5h-326c-3 0 -5 -2 -5 -5v-164c0 -3 2 -5 5 -5h74v-1142h-74c-3 0 -5 -2 -5 -5v-164c0 -3 2 -5 5 -5h326z" />
    <glyph glyph-name="L" unicode="L" horiz-adv-x="1003"
d="M963 0v256c0 3 -2 5 -5 5h-164c-3 0 -5 -2 -5 -5v-82h-513v1142h95c3 0 5 2 5 5v164c0 3 -2 5 -5 5h-326c-3 0 -5 -2 -5 -5v-164c0 -3 2 -5 5 -5h58v-1142h-58c-3 0 -5 -2 -5 -5v-164c0 -3 2 -5 5 -5h918z" />
    <glyph glyph-name="M" unicode="M" horiz-adv-x="1336"
d="M1296 1484c0 3 -2 5 -5 5h-243l-1 1l-1 -1c-2 -1 -3 -3 -3 -5v-1l-361 -672l-389 672v1c0 2 -1 4 -3 5l-1 1l-1 -1h-243c-3 0 -5 -2 -5 -5v-164c0 -3 2 -5 5 -5h75v-1141h-74c-3 0 -5 -2 -5 -5v-164c0 -3 2 -5 5 -5h326c3 0 5 2 5 5v164c0 3 -2 5 -5 5h-79v936l385 -659
l365 652v-929h-79c-3 0 -5 -2 -5 -5v-164c0 -3 2 -5 5 -5h326c3 0 5 2 5 5v164c0 3 -2 5 -5 5h-74v1141h75c3 0 5 2 5 5v164z" />
    <glyph glyph-name="N" unicode="N" horiz-adv-x="1221"
d="M292 1114l637 -1114h173v1315h74c3 0 5 2 5 5v164c0 3 -2 5 -5 5h-326c-3 0 -5 -2 -5 -5v-164c0 -3 2 -5 5 -5h79v-949l-632 1115v3c0 3 -2 5 -4 5l-1 1l-1 -1h-246c-3 0 -5 -2 -5 -5v-164c0 -3 2 -5 5 -5h74v-1141h-74c-3 0 -5 -2 -5 -5v-164c0 -3 2 -5 5 -5h326
c3 0 5 2 5 5v164c0 3 -2 5 -5 5h-79v940z" />
    <glyph glyph-name="O" unicode="O" horiz-adv-x="1300"
d="M1260 684c0 295 -73 826 -610 826c-533 0 -610 -556 -610 -826c0 -486 228 -704 610 -704c369 0 610 184 610 704zM1081 684c0 -247 -53 -526 -431 -526c-346 0 -432 276 -432 526c0 313 77 648 432 648c353 0 431 -335 431 -648z" />
    <glyph glyph-name="P" unicode="P" horiz-adv-x="994"
d="M329 666h244c261 0 381 231 381 393c0 122 -40 424 -369 431h-540c-3 0 -5 -2 -5 -5v-164c0 -3 2 -5 5 -5h112v-1142h-112c-3 0 -5 -2 -5 -5v-164c0 -3 2 -5 5 -5h377l3 1h1v1l1 3v164l-1 3v1h-1l-3 1h-93v492zM572 1318c167 0 231 -92 231 -259
c0 -120 -88 -218 -230 -218l-244 -1v478h243z" />
    <glyph glyph-name="Q" unicode="Q" horiz-adv-x="1318"
d="M1278 7l-159 160c90 112 141 279 141 517c0 295 -73 826 -610 826c-533 0 -610 -556 -610 -826c0 -486 228 -704 610 -704c129 0 242 22 335 74l170 -170c2 -2 5 -2 7 0l116 116c2 2 2 5 0 7zM847 192c-53 -22 -118 -34 -197 -34c-346 0 -432 276 -432 526
c0 313 77 648 432 648c353 0 431 -335 431 -648c0 -136 -16 -282 -94 -385l-139 138c-2 2 -5 2 -7 0l-116 -115c-2 -2 -2 -6 0 -8z" />
    <glyph glyph-name="R" unicode="R" horiz-adv-x="1103"
d="M1063 170c0 3 -2 5 -5 5h-128l-288 499c205 42 300 241 300 385c0 122 -40 424 -369 431h-529c-2 0 -4 -3 -4 -5v-164c0 -3 2 -5 5 -5h100v-1142h-100c-3 0 -5 -2 -5 -5v-164c0 -3 2 -5 5 -5h377c3 0 5 2 5 5v164c0 3 -2 5 -5 5h-105v492h128l361 -665h3h249c3 0 5 2 5 5
v164zM317 1318h243c167 0 231 -92 231 -259c0 -120 -88 -218 -230 -218h-58v-1h-186v478z" />
    <glyph glyph-name="S" unicode="S" horiz-adv-x="981"
d="M941 394c0 123 -31 455 -451 455v1c-233 0 -262 138 -262 204c0 147 68 262 262 262h194v-82c0 -3 2 -5 5 -5h164c3 0 5 2 5 5v173c0 46 -37 83 -83 83h-285c-180 0 -436 -95 -436 -436c0 -174 153 -378 432 -378c255 0 281 -124 281 -282c0 -70 -5 -220 -281 -220h-272
v80c0 3 -2 5 -5 5h-164c-3 0 -5 -2 -5 -5v-171c0 -45 36 -82 81 -83h365c470 0 455 331 455 394z" />
    <glyph glyph-name="T" unicode="T" horiz-adv-x="1104"
d="M1063 1215l1 275h-1024v-275c0 -3 2 -5 5 -5h165c3 0 5 2 5 5v100h243v-1139h-99c-3 0 -5 -2 -5 -5v-166c0 -3 2 -5 5 -5h364c3 0 5 2 5 5v166c0 3 -2 5 -5 5h-89v1139h254v-100c0 -3 2 -5 5 -5h165c3 0 5 2 5 5z" />
    <glyph glyph-name="U" unicode="U" horiz-adv-x="1301"
d="M1261 1485c0 3 -2 5 -5 5h-364c-3 0 -5 -2 -5 -5v-166c0 -3 2 -5 5 -5h92v-808c0 -127 -25 -215 -77 -269c-53 -55 -139 -82 -265 -82c-124 0 -208 26 -257 80c-49 53 -73 142 -73 271v808h97c3 0 5 2 5 5v166c0 3 -2 5 -5 5h-364c-3 0 -5 -2 -5 -5v-166c0 -3 2 -5 5 -5
h93v-808c0 -174 38 -301 118 -388c84 -93 210 -138 386 -138c86 0 158 11 222 32c67 23 124 57 169 104c84 89 126 216 126 390v808h97c3 0 5 2 5 5v166z" />
    <glyph glyph-name="V" unicode="V" horiz-adv-x="1276"
d="M1236 1485c0 3 -2 5 -5 5h-213c-2 0 -5 -2 -5 -4l-363 -1091l-387 1091c0 2 -3 4 -5 4h-213c-3 0 -5 -2 -5 -5v-164c0 -3 2 -5 5 -5h86l466 -1316h108l436 1316h90c3 0 5 2 5 5v164z" />
    <glyph glyph-name="W" unicode="W" horiz-adv-x="1549"
d="M1509 1485c0 3 -2 5 -5 5h-213c-3 0 -5 -2 -5 -5l-219 -1100l-264 512h-62l-257 -505l-221 1093c0 3 -2 5 -5 5h-213c-3 0 -5 -2 -5 -5v-164c0 -3 2 -5 5 -5h78l243 -1316h149l256 523l263 -523h149l245 1316h76c3 0 5 2 5 5v164z" />
    <glyph glyph-name="X" unicode="X" horiz-adv-x="1180"
d="M1140 169c0 3 -2 5 -5 5h-113l-320 585l308 557h105c3 0 5 2 5 5v164c0 3 -2 5 -5 5h-213c-2 0 -4 -2 -4 -2l-1 -1l-297 -542l-297 542l-1 1s-2 2 -4 2h-213c-3 0 -5 -2 -5 -5v-164c0 -3 2 -5 5 -5h105l298 -539l-331 -603h-112c-3 0 -5 -2 -5 -5v-164c0 -3 2 -5 5 -5
h213c2 0 4 2 4 2l1 1l327 590l327 -590l1 -1s2 -2 4 -2h213c3 0 5 2 5 5v164z" />
    <glyph glyph-name="Y" unicode="Y" horiz-adv-x="1276"
d="M1236 1485c0 3 -2 5 -5 5h-213c-2 0 -4 -2 -4 -2v-1l-360 -596l-392 597s-2 2 -4 2h-213c-3 0 -5 -2 -5 -5v-164c0 -3 2 -5 5 -5h100l427 -659v-486h-79c-3 0 -5 -2 -5 -5v-164c0 -3 2 -5 5 -5h326c3 0 5 2 5 5v164c0 3 -2 5 -5 5h-74v516l379 629h107c3 0 5 2 5 5v164z
" />
    <glyph glyph-name="Z" unicode="Z" horiz-adv-x="1146"
d="M1106 237c0 3 -2 5 -5 5h-168c-3 0 -5 -2 -5 -5v-62h-594l752 1285v30h-1000c-3 0 -5 -2 -5 -5v-232c0 -3 2 -5 5 -5h169c3 0 5 2 5 5v62h533l-752 -1285l-1 -30h1061c3 0 5 2 5 5v232z" />
    <glyph glyph-name="bracketleft" unicode="[" horiz-adv-x="607"
d="M547 1700h-339h-5h-3h-140c-11 0 -20 -9 -20 -20v-1900c0 -11 9 -20 20 -20h140h4h4h339c11 0 20 9 20 20v120c0 11 -9 20 -20 20h-327v1620h327c11 0 20 9 20 20v120c0 11 -9 20 -20 20z" />
    <glyph glyph-name="backslash" unicode="\" horiz-adv-x="657"
d="M40 1490v-30l416 -1460h161v30l-405 1460h-172z" />
    <glyph glyph-name="bracketright" unicode="]" horiz-adv-x="607"
d="M60 1700c-11 0 -20 -9 -20 -20v-120c0 -11 9 -20 20 -20h327v-1620h-327c-11 0 -20 -9 -20 -20v-120c0 -11 9 -20 20 -20h339h4h4h140c11 0 20 9 20 20v1900c0 11 -9 20 -20 20h-140h-3h-5h-339z" />
    <glyph glyph-name="asciicircum" unicode="^" horiz-adv-x="830"
d="M505 1530h-180l-284 -643l-1 -30h172l203 467l203 -467h172l-1 30z" />
    <glyph glyph-name="underscore" unicode="_" horiz-adv-x="640"
d="M20 -170v150h600v-150h-600z" />
    <glyph glyph-name="grave" unicode="`" horiz-adv-x="340"
d="M230 1240l-230 300h190l150 -300h-110z" />
    <glyph glyph-name="a" unicode="a" horiz-adv-x="949"
d="M904 165c0 0 -135 0 -85 0c0 0 1 406 1 440c0 150 38 435 -464 435c-124 0 -256 -35 -289 -48c-17 -7 -19 -13 -16 -27l33 -123c4 -17 12 -19 25 -16c35 8 131 53 247 53c289 0 291 -52 291 -228v-62c-62 50 -142 82 -232 82c-218 0 -375 -159 -375 -379
c0 -108 85 -312 385 -312c97 0 181 27 244 57c15 -22 40 -36 68 -36h167c3 0 5 2 5 5v154c0 3 -2 5 -5 5zM654 340v-128s-61 -95 -229 -95c-70 0 -222 -1 -222 176c0 144 84 241 212 241s239 -76 239 -194z" />
    <glyph glyph-name="b" unicode="b" horiz-adv-x="1085"
d="M45 0h167c45 0 81 37 81 82v11c63 -68 158 -113 297 -113c303 0 455 179 455 404v205c-1 262 -205 451 -452 451c-116 0 -220 -48 -299 -125l-1 493c0 45 -36 82 -81 82h-167c-3 0 -5 -2 -5 -5v-153c0 -3 2 -5 5 -5h85v-1163h-85c-3 0 -5 -2 -5 -5v-154c0 -3 2 -5 5 -5z
M293 403v202c6 171 146 291 300 291c157 0 287 -130 287 -320v-180c0 -241 -217 -263 -290 -263c-106 0 -290 46 -297 270z" />
    <glyph glyph-name="c" unicode="c" horiz-adv-x="898"
d="M858 262c0 5 -4 8 -9 10c-25 10 -96 44 -129 59c-3 1 -6 -1 -6 -4c0 -154 -129 -185 -235 -185c-107 0 -275 16 -275 250v200c1 175 120 305 275 305c111 0 191 -50 217 -158c2 -10 9 -6 16 -3c30 14 89 47 125 63c3 1 7 2 5 9c-41 141 -172 232 -363 232
c-246 0 -439 -202 -439 -450v-200c1 -215 129 -410 439 -410c306 0 379 225 379 282z" />
    <glyph glyph-name="d" unicode="d" horiz-adv-x="1085"
d="M1040 0c3 0 5 2 5 5v154c0 3 -2 5 -5 5h-85v1163h85c3 0 5 2 5 5v153c0 3 -2 5 -5 5h-167c-45 0 -81 -37 -81 -82l-1 -493c-79 77 -183 125 -299 125c-247 0 -451 -189 -452 -451v-205c0 -225 152 -404 455 -404c139 0 234 45 297 113v-11c0 -45 36 -82 81 -82h167z
M792 605v-202c-7 -224 -191 -270 -297 -270c-73 0 -290 22 -290 263v180c0 190 130 320 287 320c154 0 294 -120 300 -291z" />
    <glyph glyph-name="e" unicode="e" horiz-adv-x="932"
d="M479 -20h1c234 0 363 126 397 175c9 13 -132 100 -143 89c-54 -57 -170 -102 -254 -102h-1c-107 0 -275 16 -275 250v70l676 27c7 0 12 6 12 13l-1 71c-5 314 -167 467 -409 467h-1c-245 0 -440 -201 -441 -448v-202c1 -215 129 -410 439 -410zM207 622
c14 159 128 275 274 275h1c142 0 229 -109 243 -261z" />
    <glyph glyph-name="f" unicode="f" horiz-adv-x="771"
d="M40 5c0 -3 2 -5 5 -5h336c3 0 5 2 5 5v155c0 3 -2 5 -5 5h-85v690h205c3 0 5 2 5 5v155c0 3 -2 5 -5 5h-205v91c0 176 72 228 218 228c54 0 113 -6 157 -12c13 -2 21 -1 25 16l34 123c3 14 1 23 -17 27c-67 15 -172 17 -199 17c-378 0 -383 -284 -383 -434v-56h-86
c-3 0 -5 -2 -5 -5v-155c0 -3 2 -5 5 -5h86v-690h-86c-3 0 -5 -2 -5 -5v-155z" />
    <glyph glyph-name="g" unicode="g" horiz-adv-x="1048"
d="M1003 1020h-131c-23 0 -44 -11 -58 -29l-33 -44c-77 58 -172 93 -276 93c-256 0 -465 -210 -465 -469c0 -100 31 -186 90 -252c-45 -47 -71 -108 -71 -157c0 -104 59 -262 289 -262c198 0 313 56 425 56c30 0 23 -14 23 -35c0 -193 -88 -208 -371 -208
c-52 0 -158 9 -197 16c-6 1 -12 -2 -14 -8l-38 -139c-2 -7 2 -14 9 -15c64 -14 180 -17 240 -17c482 0 531 191 531 406c0 76 -9 181 -155 181c-124 0 -256 -70 -419 -70c-133 0 -172 36 -172 98c0 26 13 52 32 71c73 -37 163 -56 263 -56c128 0 238 31 319 90
c95 70 145 174 145 301c0 99 -30 191 -82 267l12 19h104c3 0 5 2 5 5v153c0 3 -2 5 -5 5zM505 319c-89 0 -296 24 -296 249c0 183 133 333 296 333s295 -150 295 -333c0 -225 -206 -249 -295 -249z" />
    <glyph glyph-name="h" unicode="h" horiz-adv-x="1088"
d="M1048 160c0 3 -2 5 -5 5h-60v470c0 225 -144 404 -447 404c-102 0 -181 -24 -241 -64v433c0 45 -37 82 -82 82h-168c-3 0 -5 -2 -5 -5v-155c0 -3 2 -5 5 -5h85v-1160h-85c-3 0 -5 -2 -5 -5v-155c0 -3 2 -5 5 -5h312c3 0 5 2 5 5v155c0 3 -2 5 -5 5h-62v626
c71 84 187 103 241 103c38 0 280 -18 280 -259v-470h-85c-3 0 -5 -2 -5 -5v-155c0 -3 2 -5 5 -5h312c3 0 5 2 5 5v155z" />
    <glyph glyph-name="i" unicode="i" horiz-adv-x="412"
d="M40 860c0 -3 2 -5 5 -5h85v-690h-75c-3 0 -5 -2 -5 -5v-155c0 -3 2 -5 5 -5h312c3 0 5 2 5 5v155c0 3 -2 5 -5 5h-72v773c0 46 -36 82 -82 82h-168c-3 0 -5 -2 -5 -5v-155zM56 1261c0 -31 13 -57 36 -74c20 -15 47 -23 79 -23s59 8 79 23c23 17 36 43 36 74
c0 64 -52 116 -115 116s-115 -52 -115 -116z" />
    <glyph glyph-name="j" unicode="j" horiz-adv-x="300"
d="M21 1261c0 -31 13 -57 36 -74c20 -15 47 -22 79 -22s59 7 79 22c23 17 36 43 36 74c0 64 -52 117 -115 117s-115 -53 -115 -117zM-339 -392c-3 -14 -1 -23 17 -27c67 -15 172 -17 199 -17c378 0 383 285 383 435v939c0 46 -36 82 -82 82h-168c-3 0 -5 -2 -5 -5v-154
c0 -3 2 -5 5 -5h85v-893c0 -176 -72 -228 -218 -228c-54 0 -113 6 -157 12c-13 2 -21 1 -25 -16z" />
    <glyph glyph-name="k" unicode="k" horiz-adv-x="846"
d="M130 165h-85c-3 0 -5 -2 -5 -5v-155c0 -3 2 -5 5 -5h336c3 0 5 2 5 5v155c0 3 -2 5 -5 5h-85v359l16 16c88 -146 301 -500 311 -514c13 -18 39 -26 62 -26h116c3 0 5 2 5 5v155c0 3 -2 5 -5 5h-75l-301 485l209 204h167c3 0 5 2 5 5v155c0 3 -2 5 -5 5h-169
c-23 0 -43 -9 -58 -24c-12 -12 -198 -193 -278 -271v683c0 46 -37 83 -83 83h-168c-3 0 -5 -2 -5 -5v-155c0 -3 2 -5 5 -5h85v-1160z" />
    <glyph glyph-name="l" unicode="l" horiz-adv-x="426"
d="M130 165h-85c-3 0 -5 -2 -5 -5v-155c0 -3 2 -5 5 -5h336c3 0 5 2 5 5v155c0 3 -2 5 -5 5h-85v1242c0 46 -37 83 -83 83h-168c-3 0 -5 -2 -5 -5v-155c0 -3 2 -5 5 -5h85v-1160z" />
    <glyph glyph-name="m" unicode="m" horiz-adv-x="1556"
d="M1511 165h-60v470c0 225 -114 404 -417 404c-114 0 -199 -30 -261 -79c-66 50 -157 79 -280 79c-90 0 -161 -18 -218 -50c-15 18 -37 30 -63 30h-167c-3 0 -5 -2 -5 -5v-155c0 -3 2 -5 5 -5h84v-689h-84c-3 0 -5 -2 -5 -5v-155c0 -3 2 -5 5 -5h312c3 0 5 2 5 5v155
c0 3 -2 5 -5 5h-63v665c69 51 155 64 199 64c38 0 250 -18 250 -259v-470h-42c-3 0 -5 -2 -5 -5v-155c0 -3 2 -5 5 -5h252c3 0 5 2 5 5v155c0 3 -2 5 -5 5h-43v470c0 79 -14 152 -45 214c62 35 131 45 169 45s250 -18 250 -259v-470h-85c-3 0 -5 -2 -5 -5v-155
c0 -3 2 -5 5 -5h312c3 0 5 2 5 5v155c0 3 -2 5 -5 5z" />
    <glyph glyph-name="n" unicode="n" horiz-adv-x="1088"
d="M1048 160c0 3 -2 5 -5 5h-60v470c0 225 -144 404 -447 404c-107 0 -188 -27 -249 -70c-13 29 -41 50 -75 50h-167c-3 0 -5 -2 -5 -5v-155c0 -3 2 -5 5 -5h84v-689h-84c-3 0 -5 -2 -5 -5v-155c0 -3 2 -5 5 -5h312c3 0 5 2 5 5v155c0 3 -2 5 -5 5h-63v625
c71 84 188 104 242 104c38 0 280 -18 280 -259v-470h-85c-3 0 -5 -2 -5 -5v-155c0 -3 2 -5 5 -5h312c3 0 5 2 5 5v155z" />
    <glyph glyph-name="o" unicode="o" horiz-adv-x="959"
d="M919 592c-1 247 -194 448 -439 448s-438 -201 -439 -448h-1v-202c1 -215 130 -410 440 -410s438 195 439 410v202zM755 392c0 -234 -168 -250 -275 -250c-50 0 -1 0 -1 0c-107 0 -275 16 -275 250v198h1c0 176 119 307 275 307s275 -131 275 -307v-198z" />
    <glyph glyph-name="p" unicode="p" horiz-adv-x="1090"
d="M40 1016v-153c0 -3 2 -5 5 -5h85v-1123h-84c-3 0 -5 -2 -5 -5v-154c0 -3 2 -5 5 -5h166c45 0 82 37 82 82v446c62 -71 159 -118 301 -118c303 0 455 179 455 404v204c-1 262 -205 452 -452 452c-118 0 -226 -51 -305 -131v30c0 45 -36 81 -81 81h-167c-3 0 -5 -2 -5 -5z
M595 134c-108 0 -297 48 -297 283v178c0 177 143 302 300 302s287 -130 287 -320v-180c0 -241 -217 -263 -290 -263z" />
    <glyph glyph-name="q" unicode="q" horiz-adv-x="1090"
d="M1050 1016c0 3 -2 5 -5 5h-167c-45 0 -81 -36 -81 -81v-30c-79 80 -187 131 -305 131c-247 0 -451 -190 -452 -452v-204c0 -225 152 -404 455 -404c142 0 239 47 301 118v-446c0 -45 37 -82 82 -82h166c3 0 5 2 5 5v154c0 3 -2 5 -5 5h-84v1123h85c3 0 5 2 5 5v153z
M792 417c0 -235 -189 -283 -297 -283c-73 0 -290 22 -290 263v180c0 190 130 320 287 320s300 -125 300 -302v-178z" />
    <glyph glyph-name="r" unicode="r" horiz-adv-x="866"
d="M40 860c0 -3 2 -5 5 -5h85v-690h-61c-3 0 -5 -2 -5 -5v-155c0 -3 2 -5 5 -5h311c3 0 5 2 5 5v155c0 3 -2 5 -5 5h-85v533c45 116 169 166 301 166c17 0 79 0 141 -20c14 -4 19 -6 27 8l59 127c6 12 4 18 -4 22l-5 1c-62 24 -135 38 -218 38c-141 0 -237 -49 -301 -118v16
c0 46 -36 82 -82 82h-168c-3 0 -5 -2 -5 -5v-155z" />
    <glyph glyph-name="s" unicode="s" horiz-adv-x="925"
d="M307 390c198 0 293 26 405 26c30 0 23 -14 23 -35c0 -193 -104 -238 -361 -238c-52 0 -238 9 -277 16c-6 1 -12 -2 -14 -8l-38 -139c-2 -7 2 -14 9 -15c64 -14 260 -17 320 -17c440 0 511 211 511 426c0 76 -9 181 -155 181c-124 0 -216 -40 -379 -40
c-133 0 -152 36 -152 98c0 50 -13 234 361 234c116 0 212 -45 247 -53c13 -3 21 -1 25 16l33 123c3 14 1 20 -16 27c-33 13 -165 48 -289 48c-505 0 -520 -374 -520 -428c0 -102 59 -222 267 -222z" />
    <glyph glyph-name="t" unicode="t" horiz-adv-x="546"
d="M318 855h183c3 0 5 2 5 5v155c0 3 -2 5 -5 5h-183v362c0 5 -3 8 -8 8h-148c-5 0 -9 -3 -9 -8v-362h-108c-3 0 -5 -2 -5 -5v-155c0 -3 2 -5 5 -5h108v-764c0 -50 41 -91 91 -91h202c3 0 5 2 5 5v155c0 3 -2 5 -5 5h-119c-5 0 -9 4 -9 9v681z" />
    <glyph glyph-name="u" unicode="u" horiz-adv-x="1022"
d="M40 366c7 -217 152 -386 447 -386c107 0 187 27 248 70c13 -29 42 -50 76 -50h166c3 0 5 2 5 5v155c0 3 -2 5 -5 5h-84l-1 690h85c3 0 5 2 5 5v154c0 3 -2 5 -5 5h-167c-45 0 -81 -37 -81 -82v-708c-71 -84 -188 -104 -242 -104c-38 0 -281 18 -281 259l-1 471h85
c3 0 5 2 5 5v155c0 3 -2 5 -5 5h-168c-46 0 -82 -37 -82 -83v-571z" />
    <glyph glyph-name="v" unicode="v" horiz-adv-x="1089"
d="M1049 1015c0 3 -2 5 -5 5h-138c-33 0 -62 -20 -75 -48l-260 -680l-347 728h-184l481 -1020h111l321 855h91c3 0 5 2 5 5v155z" />
    <glyph glyph-name="w" unicode="w" horiz-adv-x="1374"
d="M1334 1015c0 3 -2 5 -5 5h-138c-33 0 -62 -20 -75 -48l-1 -2c-3 -8 -5 -15 -6 -24l-165 -634l-218 508h-46l-229 -486l-237 686h-174l351 -1020h111l198 458l226 -458h111l208 855h84c3 0 5 2 5 5v155z" />
    <glyph glyph-name="x" unicode="x" horiz-adv-x="977"
d="M45 0h138c34 0 63 21 76 50l226 337l226 -344h1c14 -26 41 -43 72 -43h138c3 0 5 2 5 5v155c0 3 -2 5 -5 5h-99l-233 351l235 339h107c3 0 5 2 5 5v154c0 3 -2 5 -5 5h-138c-33 0 -62 -19 -75 -47l-224 -313l-207 313c-13 28 -42 47 -75 47h-138c-3 0 -5 -2 -5 -5v-154
c0 -3 2 -5 5 -5h103l213 -324l-251 -366h-95c-3 0 -5 -2 -5 -5v-155c0 -3 2 -5 5 -5z" />
    <glyph glyph-name="y" unicode="y" horiz-adv-x="1067"
d="M855 -51c0 -176 -92 -228 -381 -228c-54 0 -153 6 -197 12c-13 2 -21 1 -25 -16l-34 -123c-3 -14 -1 -23 17 -27c67 -15 216 -17 243 -17c491 0 543 238 549 393v995c0 46 -36 82 -82 82h-158c-3 0 -5 -2 -5 -5v-155c0 -3 2 -5 5 -5h75v-578
c-50 -102 -184 -138 -284 -138c-38 0 -293 12 -293 247v552c0 46 -36 82 -82 82h-158c-3 0 -5 -2 -5 -5v-155c0 -3 2 -5 5 -5h85v-469c0 -217 135 -404 448 -404c115 0 207 25 277 69v-102z" />
    <glyph glyph-name="z" unicode="z" horiz-adv-x="971"
d="M931 236c0 3 -2 5 -5 5h-154c-3 0 -5 -2 -5 -5v-82h-436l599 826v40h-788c-45 0 -82 -37 -82 -82v-159c0 -3 2 -5 5 -5h154c3 0 5 2 5 5v88h439l-623 -827v-40h809c45 0 82 37 82 82v154z" />
    <glyph glyph-name="braceleft" unicode="{" horiz-adv-x="918"
d="M873 1700h-6c-214 0 -380 -70 -498 -240c-35 -50 -105 -144 -122 -349c-5 -55 -7 -127 -9 -205l-198 -86v-180l198 -86c2 -78 5 -150 9 -205c14 -205 87 -299 122 -349c118 -170 284 -240 498 -240h6c3 0 5 2 5 5v155c0 3 -2 5 -5 5h-6c-157 0 -271 60 -357 183
c-58 84 -83 182 -93 368c-2 47 -4 100 -5 160v23l-166 71l166 71v22c1 60 3 114 5 161c10 186 35 284 93 368c86 123 200 183 357 183h6c3 0 5 2 5 5v155c0 3 -2 5 -5 5z" />
    <glyph glyph-name="bar" unicode="|" horiz-adv-x="210"
d="M40 -72v1561h130v-1561h-130z" />
    <glyph glyph-name="braceright" unicode="}" horiz-adv-x="918"
d="M51 1700h-6c-3 0 -5 -2 -5 -5v-155c0 -3 2 -5 5 -5h6c157 0 271 -60 357 -183c58 -84 83 -182 93 -368c2 -47 4 -101 5 -161v-22l166 -71l-166 -71v-23c-1 -60 -3 -113 -5 -160c-10 -186 -35 -284 -93 -368c-86 -123 -200 -183 -357 -183h-6c-3 0 -5 -2 -5 -5v-155
c0 -3 2 -5 5 -5h6c214 0 380 70 498 240c35 50 108 144 122 349c4 55 7 127 9 205l198 86v180l-198 86c-2 78 -4 150 -9 205c-17 205 -87 299 -122 349c-118 170 -284 240 -498 240z" />
    <glyph glyph-name="asciitilde" unicode="~" horiz-adv-x="1237"
d="M1177 811c0 0 -268 -129 -384 -129c-36 0 -88 16 -136 37c-71 42 -169 92 -217 92c-115 0 -380 -127 -380 -127c-10 -4 -20 -11 -20 -22v-140c0 -11 9 -20 20 -20c0 0 268 129 384 129c36 0 88 -17 136 -38c71 -42 169 -91 217 -91c115 0 380 127 380 127
c10 4 20 11 20 22v140c0 11 -9 20 -20 20z" />
    <glyph glyph-name="exclamdbl" unicode="&#x203c;" horiz-adv-x="546"
d="M194 1509h-104c-28 0 -50 -22 -50 -50l20 -1177c0 -12 11 -22 23 -22h115c12 0 22 10 22 22l20 1177c0 28 -18 50 -46 50zM140 177c-55 0 -100 -50 -100 -112c0 -76 70 -85 100 -85s100 9 100 85c0 62 -45 112 -100 112zM461 1509h-104c-28 0 -50 -22 -50 -50l20 -1177
c0 -12 11 -22 23 -22h115c12 0 22 10 22 22l20 1177c0 28 -18 50 -46 50zM407 177c-55 0 -100 -50 -100 -112c0 -76 70 -85 100 -85s100 9 100 85c0 62 -45 112 -100 112z" />
    <glyph glyph-name="INTERROBANG" unicode="&#x203d;" horiz-adv-x="836"
d="M329 177c-55 0 -100 -50 -100 -112c0 -76 70 -85 100 -85s100 9 100 85c0 62 -45 112 -100 112zM331 1508c-109 0 -210 -38 -289 -102c-2 -2 -3 -6 -1 -8l101 -100c2 -2 5 -2 7 0c50 45 113 71 182 71c163 0 296 -149 296 -332s-137 -234 -236 -246h-128
c-11 0 -20 -10 -20 -21l3 -73v-11v-4l8 -400c0 -12 10 -22 22 -22h105c12 0 23 10 23 22l6 370c95 10 177 40 241 87c95 70 145 173 145 300c0 259 -209 469 -465 469zM382 1494h-104c-28 0 -50 -21 -50 -49l20 -1163c0 -12 11 -22 23 -22h115c12 0 22 10 22 22l20 1163
c0 28 -18 49 -46 49z" />
    <glyph glyph-name="SMALLLIGATUREFF" unicode="&#xfb00;" horiz-adv-x="1241"
d="M40 5c0 -3 2 -5 5 -5h336c3 0 5 2 5 5v155c0 3 -2 5 -5 5h-85v690h205c3 0 5 2 5 5v155c0 3 -2 5 -5 5h-205v91c0 176 72 228 218 228c54 0 113 -6 157 -12c13 -2 21 -1 25 16l34 123c3 14 1 23 -17 27c-67 15 -172 17 -199 17c-378 0 -383 -284 -383 -434v-56h-86
c-3 0 -5 -2 -5 -5v-155c0 -3 2 -5 5 -5h86v-690h-86c-3 0 -5 -2 -5 -5v-155zM490 5c0 -3 2 -5 5 -5h336c3 0 5 2 5 5v155c0 3 -2 5 -5 5h-85v690h205c3 0 5 2 5 5v155c0 3 -2 5 -5 5h-205v91c0 176 72 228 218 228c54 0 113 -6 157 -12c13 -2 21 -1 25 16l34 123
c3 14 1 23 -17 27c-67 15 -172 17 -199 17c-378 0 -383 -284 -383 -434v-56h-86c-3 0 -5 -2 -5 -5v-155c0 -3 2 -5 5 -5h86v-690h-86c-3 0 -5 -2 -5 -5v-155zM736 1492c-185 43 -92 -140 -92 -140s226 109 92 140z" />
    <glyph glyph-name="SMALLLIGATUREFI" unicode="&#xfb01;" horiz-adv-x="992"
d="M40 5c0 -3 2 -5 5 -5h336c3 0 5 2 5 5v155c0 3 -2 5 -5 5h-85v690h205c3 0 5 2 5 5v155c0 3 -2 5 -5 5h-205v91c0 176 72 228 218 228c54 0 113 -6 157 -12c13 -2 21 -1 25 16l34 123c3 14 1 23 -17 27c-67 15 -172 17 -199 17c-378 0 -383 -284 -383 -434v-56h-86
c-3 0 -5 -2 -5 -5v-155c0 -3 2 -5 5 -5h86v-690h-86c-3 0 -5 -2 -5 -5v-155zM600 860c0 -3 2 -5 5 -5h85v-690h-75c-3 0 -5 -2 -5 -5v-155c0 -3 2 -5 5 -5h312c3 0 5 2 5 5v155c0 3 -2 5 -5 5h-72v773c0 46 -36 82 -82 82h-168c-3 0 -5 -2 -5 -5v-155zM616 1261
c0 -31 13 -57 36 -74c20 -15 47 -23 79 -23s59 8 79 23c23 17 36 43 36 74c0 64 -52 116 -115 116s-115 -52 -115 -116zM711 1494c-187 31 -67 -70 -31 -173s140 -146 162 -89s27 236 -131 262zM307 1020v-165h429v165h-429z" />
    <glyph glyph-name="SMALLLIGATUREFL" unicode="&#xfb02;" horiz-adv-x="916"
d="M40 5c0 -3 2 -5 5 -5h336c3 0 5 2 5 5v155c0 3 -2 5 -5 5h-85v690h205c3 0 5 2 5 5v155c0 3 -2 5 -5 5h-205v91c0 176 72 228 218 228c54 0 113 -6 157 -12c13 -2 21 -1 25 16l34 123c3 14 1 23 -17 27c-67 15 -172 17 -199 17c-378 0 -383 -284 -383 -434v-56h-86
c-3 0 -5 -2 -5 -5v-155c0 -3 2 -5 5 -5h86v-690h-86c-3 0 -5 -2 -5 -5v-155zM620 165h-85c-3 0 -5 -2 -5 -5v-155c0 -3 2 -5 5 -5h336c3 0 5 2 5 5v155c0 3 -2 5 -5 5h-85l-1 1245c0 46 -37 83 -83 83l-82 -128v-1200z" />
    <glyph glyph-name="SMALLLIGATUREFFI" unicode="&#xfb03;" horiz-adv-x="1422"
d="M490 5c0 -3 2 -5 5 -5h336c3 0 5 2 5 5v155c0 3 -2 5 -5 5h-85v690h205c3 0 5 2 5 5v155c0 3 -2 5 -5 5h-205v91c0 176 72 228 218 228c54 0 113 -6 157 -12c13 -2 21 -1 25 16l34 123c3 14 1 23 -17 27c-67 15 -172 17 -199 17c-378 0 -383 -284 -383 -434v-56h-86
c-3 0 -5 -2 -5 -5v-155c0 -3 2 -5 5 -5h86v-690h-86c-3 0 -5 -2 -5 -5v-155zM1050 860c0 -3 2 -5 5 -5h85v-690h-75c-3 0 -5 -2 -5 -5v-155c0 -3 2 -5 5 -5h312c3 0 5 2 5 5v155c0 3 -2 5 -5 5h-72v773c0 46 -36 82 -82 82h-168c-3 0 -5 -2 -5 -5v-155zM1066 1261
c0 -31 13 -57 36 -74c20 -15 47 -23 79 -23s59 8 79 23c23 17 36 43 36 74c0 64 -52 116 -115 116s-115 -52 -115 -116zM1161 1494c-187 31 -67 -70 -31 -173s140 -146 162 -89s27 236 -131 262zM757 1020v-165h429v165h-429zM40 5c0 -3 2 -5 5 -5h336c3 0 5 2 5 5v155
c0 3 -2 5 -5 5h-85v690h205c3 0 5 2 5 5v155c0 3 -2 5 -5 5h-205v91c0 176 72 228 218 228c54 0 113 -6 157 -12c13 -2 21 -1 25 16l34 123c3 14 1 23 -17 27c-67 15 -172 17 -199 17c-378 0 -383 -284 -383 -434v-56h-86c-3 0 -5 -2 -5 -5v-155c0 -3 2 -5 5 -5h86v-690h-86
c-3 0 -5 -2 -5 -5v-155zM714 1492c-185 43 -92 -140 -92 -140s226 109 92 140z" />
    <glyph glyph-name="SMALLLIGATUREFFL" unicode="&#xfb04;" horiz-adv-x="1362"
d="M60 5c0 -3 2 -5 5 -5h336c3 0 5 2 5 5v155c0 3 -2 5 -5 5h-85v690h205c3 0 5 2 5 5v155c0 3 -2 5 -5 5h-205v91c0 176 72 228 218 228c54 0 113 -6 157 -12c13 -2 21 -1 25 16l34 123c3 14 1 23 -17 27c-67 15 -172 17 -199 17c-378 0 -383 -284 -383 -434v-56h-86
c-3 0 -5 -2 -5 -5v-155c0 -3 2 -5 5 -5h86v-690h-86c-3 0 -5 -2 -5 -5v-155zM510 5c0 -3 2 -5 5 -5h336c3 0 5 2 5 5v155c0 3 -2 5 -5 5h-85v690h205c3 0 5 2 5 5v155c0 3 -2 5 -5 5h-205v91c0 176 72 228 218 228c54 0 113 -6 157 -12c13 -2 21 -1 25 16l34 123
c3 14 1 23 -17 27c-67 15 -172 17 -199 17c-378 0 -383 -284 -383 -434v-56h-86c-3 0 -5 -2 -5 -5v-155c0 -3 2 -5 5 -5h86v-690h-86c-3 0 -5 -2 -5 -5v-155zM756 1492c-185 43 -92 -140 -92 -140s226 109 92 140zM1066 165h-85c-3 0 -5 -2 -5 -5v-155c0 -3 2 -5 5 -5h336
c3 0 5 2 5 5v155c0 3 -2 5 -5 5h-85l-1 1245c0 46 -37 83 -83 83l-82 -128v-1200z" />
    <glyph glyph-name="uni0001" horiz-adv-x="1265"
d="M0 1638h989.638l274.899 -137.449v-1910.55h-989.638l-274.899 137.449v1910.55zM1188.25 143.922v940.156h-1111.97v-940.156h1111.97zM385.31 542.482c0 -19.207 4.57324 -120.126 -138.724 -120.126h-111.283c-13.7207 0.305664 -24.6953 11.5859 -24.6953 25.3057
v52.1367c0 0.914062 0.610352 1.52441 1.52441 1.52441h50.001c0.914062 0 1.52441 -0.610352 1.52441 -1.52441v-24.3906h82.9287c84.1484 0 85.6738 45.7334 85.6738 67.0752c0 48.1719 -7.92676 85.9775 -85.6738 85.9775c-85.0635 0 -131.711 62.1973 -131.711 115.248
c0 103.967 78.0508 132.93 132.931 132.93h86.8926c14.0254 0 25.3057 -11.2803 25.3057 -25.3057v-52.7451c0 -0.914062 -0.610352 -1.52441 -1.52441 -1.52441h-50.001c-0.914062 0 -1.52441 0.610352 -1.52441 1.52441v25.001h-59.1475
c-59.1475 0 -79.8799 -35.0625 -79.8799 -79.8799c0 -20.123 8.8418 -62.1982 79.8799 -62.1982v-0.304688c128.052 0 137.503 -101.222 137.503 -138.724zM781.662 630.899c0 -158.541 -73.4775 -214.64 -185.98 -214.64c-116.466 0 -185.979 66.4648 -185.979 214.64
c0 82.3203 23.4756 251.837 185.979 251.837c163.725 0 185.98 -161.896 185.98 -251.837zM727.088 630.899c0 95.4297 -23.7812 197.566 -131.406 197.566c-108.234 0 -131.711 -102.138 -131.711 -197.566c0 -76.2217 26.2197 -160.371 131.711 -160.371
c115.248 0 131.406 85.0635 131.406 160.371zM806.055 423.883v50.001c0 0.914062 0.610352 1.52441 1.52441 1.52441h22.5605v348.181h-22.5605c-0.914062 0 -1.52441 0.610352 -1.52441 1.52441v50.001c0 0.914062 0.610352 1.52441 1.52441 1.52441h99.3926
c0.914062 0 1.52344 -0.610352 1.52344 -1.52441v-50.001c0 -0.914062 -0.609375 -1.52441 -1.52344 -1.52441h-24.0869v-145.126h194.212v145.126h-24.0869c-0.914062 0 -1.52441 0.610352 -1.52441 1.52441v50.001c0 0.914062 0.610352 1.52441 1.52441 1.52441h99.3926
c0.914062 0 1.52441 -0.610352 1.52441 -1.52441v-50.001c0 -0.914062 -0.610352 -1.52441 -1.52441 -1.52441h-22.5605v-348.181h22.5605c0.914062 0 1.52441 -0.610352 1.52441 -1.52441v-50.001c0 -0.914062 -0.610352 -1.52441 -1.52441 -1.52441h-99.3926
c-0.914062 0 -1.52441 0.610352 -1.52441 1.52441v50.001c0 0.914062 0.610352 1.52441 1.52441 1.52441h24.0869v149.699h-194.212v-149.699h24.0869c0.914062 0 1.52344 -0.610352 1.52344 -1.52441v-50.001c0 -0.914062 -0.609375 -1.52441 -1.52344 -1.52441h-99.3926
c-0.914062 0 -1.52441 0.610352 -1.52441 1.52441z" />
    <glyph glyph-name="uni000A" unicode="&#xa;"
d="M0 1638h989.638l274.899 -137.449v-1910.55h-989.638l-274.899 137.449v1910.55zM1188.25 143.922v940.156h-1111.97v-940.156h1111.97zM620.072 422.358h-279.886c-0.914062 0 -1.52441 0.610352 -1.52441 1.52441v50.001c0 0.914062 0.610352 1.52441 1.52441 1.52441
h17.6826v348.181h-17.6826c-0.914062 0 -1.52441 0.610352 -1.52441 1.52441v50.001c0 0.914062 0.610352 1.52441 1.52441 1.52441h99.3926c0.914062 0 1.52441 -0.610352 1.52441 -1.52441v-50.001c0 -0.914062 -0.610352 -1.52441 -1.52441 -1.52441h-28.9648v-348.181
h156.407v25.001c0 0.914062 0.610352 1.52441 1.52441 1.52441h50.001c0.914062 0 1.52441 -0.610352 1.52441 -1.52441v-78.0508h0.000976563zM663.672 475.408v348.181h-17.6836c-0.914062 0 -1.52344 0.610352 -1.52344 1.52441v50.001
c0 0.914062 0.609375 1.52441 1.52344 1.52441h279.887v-78.6611c0 -0.914062 -0.610352 -1.52441 -1.52441 -1.52441h-50.002c-0.914062 0 -1.52441 0.610352 -1.52441 1.52441v25.6113h-156.406v-145.126h98.7832c0.914062 0 1.52441 -0.610352 1.52441 -1.52441v-50.3066
c0 -0.914062 -0.610352 -1.52441 -1.52441 -1.52441h-98.7832v-149.699h28.9648c0.914062 0 1.52441 -0.610352 1.52441 -1.52441v-50.001c0 -0.914062 -0.610352 -1.52441 -1.52441 -1.52441h-99.3926c-0.914062 0 -1.52441 0.610352 -1.52441 1.52441v50.001
c0 0.914062 0.610352 1.52441 1.52441 1.52441h17.6826h-0.000976562z" />
    <glyph glyph-name="uni001A" horiz-adv-x="1265"
d="M0 1638h989.638l274.899 -137.449v-1910.55h-989.638l-274.899 137.449v1910.55zM1188.25 143.922v940.156h-1111.97v-940.156h1111.97zM410.921 545.532c0 -19.207 4.57324 -120.126 -138.724 -120.126h-111.283c-13.7207 0.305664 -24.6963 11.5859 -24.6963 25.3066
v52.1357c0 0.914062 0.610352 1.52441 1.52441 1.52441h50.002c0.914062 0 1.52441 -0.610352 1.52441 -1.52441v-24.3906h82.9287c84.1475 0 85.6738 45.7334 85.6738 67.0752c0 48.1719 -7.92676 85.9775 -85.6738 85.9775c-85.0635 0 -131.711 62.1973 -131.711 115.248
c0 103.967 78.0508 132.93 132.93 132.93h86.8936c14.0254 0 25.3057 -11.2803 25.3057 -25.3057v-52.7451c0 -0.914062 -0.610352 -1.52441 -1.52441 -1.52441h-50.002c-0.914062 0 -1.52344 0.610352 -1.52344 1.52441v25.001h-59.1475
c-59.1475 0 -79.8809 -35.0615 -79.8809 -79.8799c0 -20.123 8.84277 -62.1973 79.8809 -62.1973v-0.305664c128.052 0 137.503 -101.222 137.503 -138.724zM807.579 878.163v-50.6113c0 -0.914062 -0.610352 -1.52441 -1.52441 -1.52441h-29.5742v-246.349
c0 -53.0498 -12.8047 -91.7705 -38.416 -118.906c-13.7197 -14.3291 -31.0977 -24.6953 -51.5254 -31.708c-19.5127 -6.40234 -41.4648 -9.75684 -67.6846 -9.75684c-53.6602 0 -92.0762 13.7207 -117.686 42.0752c-24.3906 26.5254 -35.9756 65.2461 -35.9756 118.296
v246.349h-28.3545c-0.914062 0 -1.52441 0.610352 -1.52441 1.52441v50.6113c0 0.914062 0.610352 1.52441 1.52441 1.52441h110.978c0.914062 0 1.52441 -0.610352 1.52441 -1.52441v-50.6113c0 -0.914062 -0.610352 -1.52441 -1.52441 -1.52441h-29.5732v-246.349
c0 -39.3301 7.31738 -66.4648 22.2568 -82.624c14.9395 -16.4629 40.5508 -24.3896 78.3564 -24.3896c38.415 0 64.6357 8.23145 80.7939 25c15.8535 16.4639 23.4766 43.2939 23.4766 82.0156v246.348h-28.0498c-0.914062 0 -1.52441 0.610352 -1.52441 1.52441v50.6113
c0 0.914062 0.610352 1.52441 1.52441 1.52441h110.979c0.914062 0 1.52441 -0.610352 1.52441 -1.52441zM1128.32 546.141c0 -50.6113 -22.5605 -120.735 -117.076 -120.735h-177.749c-0.914062 0 -1.52441 0.610352 -1.52441 1.52441v49.3906
c0 0.914062 0.610352 1.52441 1.52441 1.52441h32.0137v349.4h-32.0137c-0.914062 0 -1.52441 0.610352 -1.52441 1.52441v49.3906c0 0.914062 0.610352 1.52441 1.52441 1.52441h162.504c100.309 -2.13477 110.37 -94.5146 110.37 -131.711
c0 -27.1357 -10.3672 -59.7578 -32.9277 -83.8447c44.5127 -29.5732 54.8789 -89.6357 54.8789 -117.99v0.00195312zM917.946 827.248v-145.737h74.3926c43.2939 0 70.124 29.8789 70.124 66.4658c0 50.915 -19.5127 79.2695 -70.4297 79.2695h-74.0879zM1083.2 546.141
c0 52.4414 -19.8174 82.0156 -71.9531 82.0156h-93.2959v-150.31h93.2959c44.5127 0 71.9531 30.7939 71.9531 68.2939z" />
    <glyph glyph-name="uni001F"
d="M0 1638h989.638l274.899 -137.449v-1910.55h-989.638l-274.899 137.449v1910.55zM1188.25 143.922v940.156h-1111.97v-940.156h1111.97zM668.847 878.163v-50.6113c0 -0.914062 -0.610352 -1.52441 -1.52441 -1.52441h-29.5732v-246.349
c0 -53.0498 -12.8057 -91.7705 -38.416 -118.906c-13.7207 -14.3291 -31.0986 -24.6953 -51.5264 -31.708c-19.5117 -6.40234 -41.4639 -9.75684 -67.6836 -9.75684c-53.6611 0 -92.0762 13.7207 -117.687 42.0752c-24.3896 26.5254 -35.9756 65.2461 -35.9756 118.296
v246.349h-28.3545c-0.914062 0 -1.52441 0.610352 -1.52441 1.52441v50.6113c0 0.914062 0.610352 1.52441 1.52441 1.52441h110.979c0.914062 0 1.52344 -0.610352 1.52344 -1.52441v-50.6113c0 -0.914062 -0.609375 -1.52441 -1.52344 -1.52441h-29.5742v-246.349
c0 -39.3301 7.31836 -66.4648 22.2578 -82.624c14.9395 -16.4629 40.5498 -24.3896 78.3555 -24.3896c38.416 0 64.6357 8.23145 80.7939 25c15.8535 16.4639 23.4766 43.2939 23.4766 82.0156v246.348h-28.0488c-0.914062 0 -1.52441 0.610352 -1.52441 1.52441v50.6113
c0 0.914062 0.610352 1.52441 1.52441 1.52441h110.978c0.914062 0 1.52441 -0.610352 1.52441 -1.52441zM967.939 545.532c0 -19.207 4.57324 -120.126 -138.724 -120.126h-111.283c-13.7207 0.305664 -24.6953 11.5859 -24.6953 25.3066v52.1357
c0 0.914062 0.610352 1.52441 1.52441 1.52441h50.001c0.914062 0 1.52441 -0.610352 1.52441 -1.52441v-24.3906h82.9287c84.1484 0 85.6738 45.7334 85.6738 67.0752c0 48.1719 -7.92676 85.9775 -85.6738 85.9775c-85.0635 0 -131.711 62.1973 -131.711 115.248
c0 103.967 78.0508 132.93 132.931 132.93h86.8926c14.0254 0 25.3057 -11.2803 25.3057 -25.3057v-52.7451c0 -0.914062 -0.610352 -1.52441 -1.52441 -1.52441h-50.001c-0.914062 0 -1.52441 0.610352 -1.52441 1.52441v25.001h-59.1475
c-59.1475 0 -79.8799 -35.0615 -79.8799 -79.8799c0 -20.123 8.8418 -62.1973 79.8799 -62.1973v-0.305664c128.052 0 137.503 -101.222 137.503 -138.724z" />
    <glyph glyph-name="uni0007"
d="M0 1638h989.638l274.899 -137.449v-1910.55h-989.638l-274.899 137.449v1910.55zM1188.25 143.922v940.156h-1111.97v-940.156h1111.97zM474.946 543.093c0 -50.6123 -22.5605 -120.736 -117.077 -120.736h-177.748c-0.914062 0 -1.52441 0.610352 -1.52441 1.52441
v49.3916c0 0.914062 0.610352 1.52441 1.52441 1.52441h32.0137v349.399h-32.0137c-0.914062 0 -1.52441 0.610352 -1.52441 1.52441v49.3906c0 0.914062 0.610352 1.52441 1.52441 1.52441h162.504c100.308 -2.13379 110.369 -94.5146 110.369 -131.711
c0 -27.1348 -10.3662 -59.7578 -32.9277 -83.8438c44.5137 -29.5742 54.8799 -89.6367 54.8799 -117.991v0.00292969zM264.575 824.197v-145.736h74.3926c43.2939 0 70.124 29.8789 70.124 66.4658c0 50.915 -19.5127 79.2695 -70.4297 79.2695h-74.0879zM429.824 543.093
c0 52.4404 -19.8174 82.0146 -71.9531 82.0146h-93.2959v-150.31h93.2959c44.5127 0 71.9531 30.7939 71.9531 68.2949zM727.088 823.589h-156.406v-145.126h94.209c0.914062 0 1.52441 -0.610352 1.52441 -1.52441v-50.3066
c0 -0.914062 -0.610352 -1.52441 -1.52441 -1.52441h-94.209v-149.699h156.406v25.6113c0 0.914062 0.610352 1.52344 1.52441 1.52344h50.002c0.914062 0 1.52344 -0.609375 1.52344 -1.52344v-78.6611h-279.275c-0.914062 0 -1.52441 0.610352 -1.52441 1.52441v50.001
c0 0.914062 0.610352 1.52441 1.52441 1.52441h17.0742v348.181h-17.0742c-0.914062 0 -1.52441 0.610352 -1.52441 1.52441v50.001c0 0.914062 0.610352 1.52441 1.52441 1.52441h279.275v-78.6611c0 -0.914062 -0.609375 -1.52441 -1.52344 -1.52441h-50.002
c-0.914062 0 -1.52441 0.610352 -1.52441 1.52441v25.6113zM1085.94 422.358h-279.886c-0.914062 0 -1.52441 0.610352 -1.52441 1.52441v50.001c0 0.914062 0.610352 1.52441 1.52441 1.52441h17.6826v348.181h-17.6826c-0.914062 0 -1.52441 0.610352 -1.52441 1.52441
v50.001c0 0.914062 0.610352 1.52441 1.52441 1.52441h99.3926c0.914062 0 1.52441 -0.610352 1.52441 -1.52441v-50.001c0 -0.914062 -0.610352 -1.52441 -1.52441 -1.52441h-28.9648v-348.181h156.406v25.001c0 0.914062 0.610352 1.52441 1.52441 1.52441h50.002
c0.914062 0 1.52344 -0.610352 1.52344 -1.52441v-78.0508h0.00195313z" />
    <glyph glyph-name="uni0015"
d="M0 1638h989.638l274.899 -137.449v-1910.55h-989.638l-274.899 137.449v1910.55zM1188.25 143.922v940.156h-1111.97v-940.156h1111.97zM176.616 762.002v-286.594h24.0859c0.914062 0 1.52441 -0.610352 1.52441 -1.52441v-50.001
c0 -0.914062 -0.610352 -1.52441 -1.52441 -1.52441h-99.3926c-0.914062 0 -1.52344 0.610352 -1.52344 1.52441v50.001c0 0.914062 0.609375 1.52441 1.52344 1.52441h22.5615v347.875h-22.5615c-0.914062 0 -1.52344 0.610352 -1.52344 1.52441v50.002
c0 0.914062 0.609375 1.52441 1.52344 1.52441h75.0029l0.304688 0.304688l0.305664 -0.304688c0.610352 0 1.21875 -0.610352 1.21875 -1.52441v-0.914062l192.688 -339.949v289.337h-24.0859c-0.914062 0 -1.52441 0.610352 -1.52441 1.52441v50.002
c0 0.914062 0.610352 1.52441 1.52441 1.52441h99.3926c0.914062 0 1.52441 -0.610352 1.52441 -1.52441v-50.002c0 -0.914062 -0.610352 -1.52441 -1.52441 -1.52441h-22.5615v-400.925h-52.7451l-194.212 339.644h-0.000976562zM829.378 473.884v-50.001
c0 -0.914062 -0.610352 -1.52441 -1.52441 -1.52441h-102.137c-0.914062 0 -1.52441 0.610352 -1.52441 1.52441v50.001c0 0.914062 0.610352 1.52441 1.52441 1.52441h20.7324l-27.1357 85.9775h-144.21l-27.1357 -85.9775h25.001
c0.914062 0 1.52441 -0.610352 1.52441 -1.52441v-50.001c0 -0.914062 -0.610352 -1.52441 -1.52441 -1.52441h-99.3926c-0.914062 0 -1.52441 0.610352 -1.52441 1.52441v50.001c0 0.914062 0.610352 1.52441 1.52441 1.52441h24.6953l109.148 348.181h-13.7197
c-0.914062 0 -1.52441 0.610352 -1.52441 1.52441v50.001c0 0.914062 0.610352 1.52441 1.52441 1.52441h110.064c0.914062 0 1.52441 -0.610352 1.52441 -1.52441v-50.001c0 -0.914062 -0.610352 -1.52441 -1.52441 -1.52441h-13.7207l109.148 -348.181h28.6602
c0.914062 0 1.52441 -0.610352 1.52441 -1.52441h0.000976563zM702.851 614.436l-55.7949 177.14l-55.4902 -177.14h111.283h0.00195313zM954.686 422.358h-99.3926c-0.914062 0 -1.52441 0.610352 -1.52441 1.52441v50.001c0 0.914062 0.610352 1.52441 1.52441 1.52441
h22.5605v348.181h-22.5605c-0.914062 0 -1.52441 0.610352 -1.52441 1.52441v50.001c0 0.914062 0.610352 1.52441 1.52441 1.52441h99.3926c0.914062 0 1.52441 -0.610352 1.52441 -1.52441v-50.001c0 -0.914062 -0.610352 -1.52441 -1.52441 -1.52441h-24.0869v-145.126
h8.53711l120.126 145.126h-16.7695c-0.914062 0 -1.52441 0.610352 -1.52441 1.52441v50.001c0 0.914062 0.610352 1.52441 1.52441 1.52441h99.3926c0.914062 0 1.52441 -0.610352 1.52441 -1.52441v-50.001c0 -0.914062 -0.610352 -1.52441 -1.52441 -1.52441h-28.6592
l-126.833 -158.541l161.284 -189.64h15.5498c0.914062 0 1.52441 -0.610352 1.52441 -1.52441v-50.001c0 -0.914062 -0.610352 -1.52441 -1.52441 -1.52441h-99.3926c-0.914062 0 -1.52441 0.610352 -1.52441 1.52441v50.001c0 0.914062 0.610352 1.52441 1.52441 1.52441
h14.9395l-127.138 149.699h-21.0371v-149.699h24.0869c0.914062 0 1.52441 -0.610352 1.52441 -1.52441v-50.001c0 -0.914062 -0.610352 -1.52441 -1.52441 -1.52441z" />
    <glyph glyph-name="uni001B" horiz-adv-x="1268"
d="M0 1638h989.638l274.899 -137.449v-1910.55h-989.638l-274.899 137.449v1910.55zM1188.25 143.922v940.156h-1111.97v-940.156h1111.97zM646.294 875.114v-50.001c0 -0.914062 -0.610352 -1.52441 -1.52441 -1.52441h-27.4404l-132.931 -401.23h-32.9268l-142.078 401.23
h-26.2197c-0.914062 0 -1.52441 0.610352 -1.52441 1.52441v50.001c0 0.914062 0.610352 1.52441 1.52441 1.52441h64.9404c0.610352 0 1.52441 -0.610352 1.52441 -1.21875l117.991 -332.631l110.675 332.631c0 0.610352 0.914062 1.21875 1.52441 1.21875h64.9404
c0.914062 0 1.52441 -0.610352 1.52441 -1.52441zM982.584 792.795c0 -0.914062 -0.610352 -1.52441 -1.52441 -1.52441h-50.3066c-0.914062 0 -1.52441 0.610352 -1.52441 1.52441v30.4883h-77.4424v-347.267h27.1357c0.914062 0 1.52441 -0.609375 1.52441 -1.52344
v-50.6123c0 -0.914062 -0.610352 -1.52441 -1.52441 -1.52441h-110.979c-0.914062 0 -1.52441 0.610352 -1.52441 1.52441v50.6123c0 0.914062 0.610352 1.52344 1.52441 1.52344h30.1846v347.267h-74.0889v-30.4883c0 -0.914062 -0.610352 -1.52441 -1.52344 -1.52441
h-50.3066c-0.914062 0 -1.52441 0.610352 -1.52441 1.52441v83.8438h312.204z" />
    <glyph glyph-name="uni001C"
d="M0 1638h989.638l274.899 -137.449v-1910.55h-989.638l-274.899 137.449v1910.55zM1188.25 143.922v940.156h-1111.97v-940.156h1111.97zM357.871 475.408v348.181h-17.6836c-0.914062 0 -1.52344 0.610352 -1.52344 1.52441v50.001
c0 0.914062 0.609375 1.52441 1.52344 1.52441h279.887v-78.6611c0 -0.914062 -0.610352 -1.52441 -1.52441 -1.52441h-50.002c-0.914062 0 -1.52441 0.610352 -1.52441 1.52441v25.6113h-156.406v-145.126h98.7832c0.914062 0 1.52441 -0.610352 1.52441 -1.52441v-50.3066
c0 -0.914062 -0.610352 -1.52441 -1.52441 -1.52441h-98.7832v-149.699h28.9648c0.914062 0 1.52441 -0.610352 1.52441 -1.52441v-50.001c0 -0.914062 -0.610352 -1.52441 -1.52441 -1.52441h-99.3926c-0.914062 0 -1.52441 0.610352 -1.52441 1.52441v50.001
c0 0.914062 0.610352 1.52441 1.52441 1.52441h17.6826h-0.000976562zM663.672 475.408v348.181h-17.6836c-0.914062 0 -1.52344 0.610352 -1.52344 1.52441v50.001c0 0.914062 0.609375 1.52441 1.52344 1.52441h279.887v-78.6611
c0 -0.914062 -0.610352 -1.52441 -1.52441 -1.52441h-50.002c-0.914062 0 -1.52441 0.610352 -1.52441 1.52441v25.6113h-156.406v-145.126h98.7832c0.914062 0 1.52441 -0.610352 1.52441 -1.52441v-50.3066c0 -0.914062 -0.610352 -1.52441 -1.52441 -1.52441h-98.7832
v-149.699h28.9648c0.914062 0 1.52441 -0.610352 1.52441 -1.52441v-50.001c0 -0.914062 -0.610352 -1.52441 -1.52441 -1.52441h-99.3926c-0.914062 0 -1.52441 0.610352 -1.52441 1.52441v50.001c0 0.914062 0.610352 1.52441 1.52441 1.52441h17.6826h-0.000976562z" />
    <glyph glyph-name="uni001D"
d="M0 1638h989.638l274.899 -137.449v-1910.55h-989.638l-274.899 137.449v1910.55zM1188.25 143.922v940.156h-1111.97v-940.156h1111.97zM560.468 806.82v17.3789h-43.5996c-47.8662 0 -85.6738 -19.207 -111.894 -56.709
c-24.6953 -35.3672 -38.1104 -86.8936 -38.1104 -144.821c0 -106.405 42.0742 -147.87 150.004 -147.87h43.5996v15.8535c0 0.914062 0.610352 1.52441 1.52441 1.52441h50.3066c0.914062 0 1.52344 -0.610352 1.52344 -1.52441v-42.9883
c0 -14.0254 -11.2803 -25.3057 -25.3057 -25.3057h-71.6484c-68.5996 0 -117.99 15.8535 -151.528 48.4766c-34.1465 33.2324 -50.915 82.9287 -50.915 151.834c0 33.2324 3.96387 64.9404 11.585 93.9053c7.92676 30.7949 20.123 57.9287 35.9766 80.7949
c35.9756 51.8311 89.6357 79.2695 154.882 79.2695h71.6484c14.0254 0 25.3057 -11.2803 25.3057 -25.3057v-44.5127c0 -0.914062 -0.609375 -1.52441 -1.52344 -1.52441h-50.3066c-0.914062 0 -1.52441 0.610352 -1.52441 1.52441zM950.112 474.188v-50.001
c0 -0.914062 -0.610352 -1.52441 -1.52441 -1.52441h-76.8311l-110.064 202.749h-39.0264v-150.004h32.0137c0.914062 0 1.52441 -0.610352 1.52441 -1.52441v-50.002c0 -0.914062 -0.610352 -1.52441 -1.52441 -1.52441h-114.942
c-0.914062 0 -1.52441 0.610352 -1.52441 1.52441v50.002c0 0.914062 0.610352 1.52441 1.52441 1.52441h30.4893v348.18h-30.4893c-0.914062 0 -1.52441 0.610352 -1.52441 1.52441v50.002c0 0.610352 0.610352 1.52441 1.21973 1.52441h161.284
c100.309 -2.13477 112.503 -94.21 112.503 -131.406c0 -43.9043 -28.9648 -104.576 -91.4658 -117.382l87.8066 -152.139h39.0264c0.914062 0 1.52441 -0.610352 1.52441 -1.52441zM722.668 824.197v-145.736h56.709v0.305664h17.6826
c43.2939 0 70.124 29.8789 70.124 66.4648c0 50.915 -19.5127 78.9658 -70.4287 78.9658h-74.0889h0.00195312z" />
    <glyph glyph-name="u10330" unicode="&#x10330;" horiz-adv-x="1649"
d="M352 1599c405 -312 635.381 -1062.59 789 -1488c39 -108 294 -108 453 -108c96.7988 0 -6 330 -6 330l-348 3c60.502 -99.6514 -412.045 1285.16 -693 1275c-92.9393 -3.36074 -119 -7 -195 -12zM88 -387c118 201 234 405 234 405
c0 443 -107.999 1280.99 18.8418 1293.27c135.787 13.1424 230.158 8.72949 224.158 8.72949c0 0 -185 168 -303 276c0 0 -164 54 -213 -6s24 -1206 39 -1977z" />
    <glyph glyph-name="u10339" unicode="&#x10339;" horiz-adv-x="722"
d="M37 1614h318s54 -969 54 -1137s42 -366 159 -366c72 0 34 -111 16 -111h-292s-123 132 -123 393s96 1056 33 1107s-116 67 -165 114z" />
    <glyph glyph-name="u1033F" unicode="&#x1033f;" horiz-adv-x="1596"
d="M37 1614h228h30h60c3.90367 0 7.6482 -0.584084 11.2391 -1.72606l836.761 -20.2739s184 34 178 -335s6 -1254 6 -1257s-232 9 -232 0c0 0 117 1109 -36 1304c-111.889 142.604 -487.97 117.28 -681.997 93.375c23.1246 -295.879 -28.0034 -803.144 -28.0034 -920.375
c0 -168 42 -366 159 -366c63 0 34 -111 16 -111h-292s-123 132 -123 393s96 1056 33 1107s-116 67 -165 114z" />
    <glyph glyph-name="u10348" unicode="&#x10348;" horiz-adv-x="1247"
d="M445 807c0 83 67 150 150 150s150 -67 150 -150s-67 -150 -150 -150s-150 67 -150 150zM160 825c0 -412 204 -747 456 -747s456 335 456 747s-204 747 -456 747s-456 -335 -456 -747zM4 822c0 447 276 810 615 810s615 -363 615 -810s-276 -810 -615 -810
s-615 363 -615 810z" />
    <glyph glyph-name="u1034A" unicode="&#x1034a;" horiz-adv-x="935"
d="M25 1206l441 432l441 -435s-162 -132 -195 -9c-34.504 128.606 -249 123 -249 123s-201 15 -255 -126c-44.1084 -115.172 -183 15 -183 15zM340 1338h219v-1338h-219v1338z" />
    </font>
</defs>
</svg>
