<?xml version="1.0" encoding="UTF-8"?>
<svg id="a" data-name="Layer 1" xmlns="http://www.w3.org/2000/svg" xmlns:xlink="http://www.w3.org/1999/xlink" viewBox="0 0 256 256">
  <defs>
    <linearGradient id="b" x1="128" y1="256" x2="128" y2="0" gradientUnits="userSpaceOnUse">
      <stop offset="0" stop-color="#90c"/>
      <stop offset=".014" stop-color="#9503cc"/>
      <stop offset=".181" stop-color="#672ccd"/>
      <stop offset=".349" stop-color="#424ece"/>
      <stop offset=".516" stop-color="#2569cf"/>
      <stop offset=".681" stop-color="#107bd0"/>
      <stop offset=".843" stop-color="#0487d0"/>
      <stop offset="1" stop-color="#008bd1"/>
    </linearGradient>
  </defs>
  <path d="m235.635,20.365C215.27,0,184.089,0,128,0S40.73,0,20.365,20.365C0,40.73,0,71.911,0,128s0,87.27,20.365,107.635c20.365,20.365,51.546,20.365,107.635,20.365s87.27,0,107.635-20.365c20.365-20.365,20.365-51.546,20.365-107.635s0-87.27-20.365-107.635Z" style="fill: url(#b);"/>
  <path d="m196.788,29.792l-19.168.002c-3.248,0-6.306,1.529-8.255,4.127l-3.25,4.333c-11.14-8.83-25.168-14.101-40.392-14.101-36.146,0-65.554,29.71-65.554,66.229,0,14.089,4.377,26.159,12.756,35.445-6.397,6.64-10.025,15.3-10.025,22.151,0,14.645,8.191,37.028,40.67,37.028,27.948,0,45.467-4.121,61.248-4.121,4.21,0,3.226,2.063,3.244,5.021-.06,27.267-13.588,25.218-53.567,25.218-7.284,0-22.42-1.659-27.854-2.683-.88-.166-1.73.378-1.963,1.243l-5.341,20.206c-.255.948.325,1.921,1.284,2.128,8.985,1.942,25.384,2.384,33.873,2.384,67.982,0,74.963-23.167,74.963-53.517,0-10.709-1.214-25.493-21.851-25.493-17.446,0-36.146,6.033-59.211,6.033-18.737,0-24.198-5.115-24.198-13.852,0-3.725,1.805-7.218,4.438-9.924,10.294,5.191,22.927,7.902,37.088,7.902,18.083,0,33.673-4.419,45.085-12.78,13.392-9.811,20.469-24.468,20.469-42.388,0-13.541-4.046-26.144-10.977-36.645l2.217-2.956c.165-.22.424-.35.699-.35l13.571.003c.707,0,1.28-.573,1.28-1.28v-18.082c0-.707-.573-1.28-1.28-1.28Zm-71.064,96.153c-12.525,0-41.655-3.434-41.655-35.244,0-25.886,18.686-46.945,41.655-46.945s41.655,21.059,41.655,46.945c0,31.81-29.131,35.244-41.655,35.244Z" style="fill: #9df;"/>
</svg>