<?xml version="1.0" encoding="UTF-8"?>
<svg xmlns="http://www.w3.org/2000/svg" viewBox="0 0 1000 1000">
  <path fill="hsl(200, 100%, 41%)" d="m491.109,170.926c-89.722,0-162.715,82.261-162.715,183.377,0,124.258,113.791,137.671,162.715,137.671s162.715-13.413,162.715-137.671c0-101.116-72.993-183.377-162.715-183.377Z"/>
  <path fill="hsl(200, 100%, 41%)" d="m920.448,79.552C840.896,0,719.097,0,500,0S159.104,0,79.552,79.552C0,159.104,0,280.903,0,500s0,340.896,79.552,420.448c79.552,79.552,201.351,79.552,420.448,79.552s340.896,0,420.448-79.552c79.552-79.552,79.552-201.351,79.552-420.448s0-340.896-79.552-420.448Zm-146.744,112.456c0,2.761-2.239,5-5,5h-7.034c-.038,0-.074-.01-.112-.011-.004,0-.007.001-.01.001h-45.856c-1.075,0-2.087.506-2.731,1.366l-8.66,11.546c27.074,41.021,42.88,90.25,42.88,143.144,0,70.001-27.646,127.253-79.957,165.578-44.577,32.657-105.478,49.921-176.114,49.921-55.318,0-104.663-10.591-144.875-30.869-10.283,10.57-17.335,24.213-17.335,38.766,0,34.131,21.332,54.11,94.524,54.11,90.099,0,163.146-23.565,231.294-23.565,80.615,0,85.357,57.752,85.357,99.583,0,118.551-27.271,209.05-292.825,209.05-33.161,0-97.221-1.724-132.317-9.312-3.75-.811-6.015-4.609-5.018-8.314l20.862-78.928c.909-3.377,4.229-5.502,7.667-4.855,21.23,3.999,80.354,10.479,108.806,10.479,156.167,0,209.013,8.004,209.245-98.506-.071-11.553,3.771-19.614-12.673-19.614-61.646,0-130.08,16.099-239.25,16.099-126.868,0-158.866-87.434-158.866-144.64,0-26.761,14.174-60.59,39.162-86.528-32.729-36.272-49.828-83.42-49.828-138.455,0-142.651,114.875-258.706,256.071-258.706,59.47,0,114.268,20.59,157.783,55.082l12.693-16.924c7.611-10.15,19.559-16.123,32.245-16.123h67.717c.01,0,.019.003.029.003.032,0,.062-.009.094-.009h7.034c2.761,0,5,2.239,5,5v70.632Z"/>
</svg>