<?xml version="1.0" encoding="UTF-8"?>
<svg id="Layer_1" xmlns="http://www.w3.org/2000/svg" viewBox="0 0 147 29">
	<g id="g">
		<path
			d="m13,6l-1,2c-1.15-.9-3-2-5-2C3,6,0,9,0,13c0,2,.45,3.04,1.32,4-.66.69-1.32,1.35-1.32,2.1,0,1.51,1.13,3.94,4.48,3.94,4.52,0,5.52-1,6.52-1,.43,0,1,.69,1,1,0,3-3,3-6,3-.75,0-2,0-3-1-.1-.02-1.1,2-1,2,1,1,3,1,4,1,7.01,0,8-2.86,8-6,0-1,0-2-1-2-4,0-5.64,1-8.02,1-1.93,0-2.98-1.08-2.98-2,0-.39.67-.75.94-1.03,1.1.54,2.6,1.01,4.1,1.01,4,0,7-2,7-6,0-2-.28-2.9-1-4l1-1h2v-2h-3Zm-6,11c-2,0-5-1-5-4s2.63-5,5-5,5,2,5,5-2,4-5,4Z" />
	</g>
	<path id="l" d="m20,19h-1V1c0-.66-.34-1-1-1h-2v2h1v17h-1v2h4v-2Z" />
	<g id="y">
		<path
			d="m33,6h-2v2h1v9c-.72,1.47-2.55,2-4,2-.55,0-4,.4-4-3V7c0-.66-.34-1-1-1h-3v2h2v8c0,3.14,1.48,5,6,5,1.65,0,2.99-.37,4-1v2c0,3-1.83,4-6,4-2,0-3-1-3-1l-1,2c1,1,3,1,4,1,7.1,0,8-3,8-6V7c0-.66-.34-1-1-1Z" />
	</g>
	<path id="p"
		d="m35,25v2h2c.65,0,1-.35,1-1v-6s2,1,4,1c3,0,6-2,6-5v-5c0-3-2-5-6-5-2,0-4,1-4,1,0,0-.35-1-1-1h-2v2h1v17h-1Zm7-17c2,0,4,1,4,3v5c0,2-1.73,3-4,3s-4-1-4-3v-5c0-2,2-3,4-3Z" />
	<path id="h"
		d="m63,19h-1s0-7,0-7c0-4-1.64-6-6-6-1.47,0-3.14.42-4,1V1c0-.66-.35-1-1-1h-2v2h1v17h-1v2h4v-2h-1v-9c1-1.21,3-2,4-2s4,0,4,4v7h-1v2h4v-2Z" />
	<path id="r"
		d="m75,7s-1-1-4-1c-2,0-3,1-4,2v-1c0-.66-.33-1-1-1h-2v2h1v11h-1v2h4v-2h-1v-8c.66-1.66,2-3,4-3,1,0,2,0,3,1l1-2Z" />
	<path id="s"
		d="m85,13c-2,0-2-2-2-3s2-2,4-2c1.68,0,3,0,4,1l1-2c-1-1-2.21-1-4-1-7,0-7,3.22-7,4,0,2,0,5,3,5,4,0,7-1,7,1,0,2.78-1.28,3-5,3-1,0-3,0-4-1-.1-0-1.1,2-1,2,1,1,3,1,5,1,6.37,0,7-1.9,7-5,0-5-5.63-3-8-3Z" />
	<path id="t" d="m100,6h-3V1h-2v5h-2v2h2v12c0,.72.27,1,1,1h3v-2h-2v-11h3v-2Z" />
	<path id="u"
		d="m114,6h-2c-.65,0-1,.35-1,1v10c0,2-3.23,2-4,2-1,0-4-.53-4-4v-7h1v-2h-2c-.65,0-1,.34-1,1v8c.11,3.13,1.77,6,6,6,1.53,0,4-1,4-1,0,0,.51,1,1,1h2v-2h-1v-11h1v-2Z" />
	<path id="d"
		d="m128,2V0h-2c-.65,0-1,.35-1,1v6s-2-1-4-1c-3,0-6,2-6,5v5c0,3,2,5,6,5,2,0,4-1,4-1,0,0,.35,1,1,1h2v-2h-1V2h1Zm-7,17c-2,0-4-1-4-3v-5c0-2,1.73-3,4-3s4,1,4,3v5c0,2-2,3-4,3Z" />
	<path id="i" d="m133,19h-1V7c0-.66-.35-1-1-1h-2v2h1v11h-1v2h4v-2Z" />
	<path id="i-2" d="m131,4.5c2,0,1.25-1.5,1.25-1.5,0,0-.35-1-1.25-1s-1.25,1-1.25,1c0,0-.75,1.5,1.25,1.5Z" />
	<path id="o"
		d="m146,12c0-4-3-6-6-6s-6,2-6,6v4c0,3,3,5,6,5s6-2,6-5v-4Zm-6,7c-2,0-4-1-4-3v-4c0-2,2-4,4-4s4,2,4,4v4c0,2-2,3-4,3Z" />
</svg>