<?xml version="1.0" encoding="utf-8"?>
<!-- Generator: Adobe Illustrator 27.2.0, SVG Export Plug-In . SVG Version: 6.00 Build 0)  -->
<svg version="1.1" id="Layer_1" xmlns="http://www.w3.org/2000/svg" xmlns:xlink="http://www.w3.org/1999/xlink" x="0px"
	y="0px" viewBox="0 0 5189 991" style="enable-background:new 0 0 5189 991;" xml:space="preserve">
	<defs>
		<linearGradient id="logoGradient">
			<stop offset="0%" stop-color="var(--blue-l60)" />
			<stop offset="100%" stop-color="var(--purple-l50)" />
		</linearGradient>
	</defs>>
	</defs>
	<mask maskUnits="userSpaceOnUse" x="-10000" y="0" width="1000" height="1000" id="SVGID_1_">
		<g class="st0">
			<path d="M-9508.89,568.55c-70.63,0-131.54-17.26-176.11-49.92c-52.31-38.33-79.96-95.58-79.96-165.58
			c0-142.65,114.87-258.71,256.07-258.71s256.07,116.06,256.07,258.71c0,70-27.65,127.25-79.96,165.58
			C-9377.35,551.29-9438.25,568.55-9508.89,568.55z M-9508.89,170.93c-89.72,0-162.71,82.26-162.71,183.38
			c0,124.26,113.79,137.67,162.71,137.67s162.71-13.41,162.71-137.67C-9346.18,253.19-9419.17,170.93-9508.89,170.93z" />
			<path d="M-9345.28,606.99c-68.15,0-141.2,23.56-231.29,23.56c-73.19,0-94.52-19.98-94.52-54.11c0-32.04,34.13-59.73,61.86-59.73
			l-69.18-52.49c-47.42,23.71-75.87,75.87-75.87,113.81c0,57.21,32,144.64,158.87,144.64c109.17,0,177.6-16.1,239.25-16.1
			c16.44,0,12.6,8.06,12.67,19.61c-0.23,106.51-53.08,98.51-209.25,98.51c-28.45,0-87.58-6.48-108.81-10.48
			c-3.44-0.65-6.76,1.48-7.67,4.85l-20.86,78.93c-1,3.7,1.27,7.5,5.02,8.31c35.09,7.59,99.16,9.31,132.32,9.31
			c265.55,0,292.83-90.5,292.83-209.05C-9259.93,664.75-9264.67,606.99-9345.28,606.99z" />
			<path d="M-9326.45,245.21l-59.03-44.27c-1.51-1.13-1.81-3.27-0.68-4.78l47.74-63.66c7.61-10.15,19.56-16.12,32.24-16.12h67.72
			c1.89,0,3.41,1.53,3.41,3.41v73.79c0,1.89-1.53,3.41-3.41,3.41h-45.86c-1.07,0-2.09,0.51-2.73,1.37l-34.63,46.17
			C-9322.8,246.04-9324.94,246.35-9326.45,245.21z" />
			<path d="M-9231.3,197.01h-7.03c-2.76,0-5-2.24-5-5v-70.63c0-2.76,2.24-5,5-5h7.03c2.76,0,5,2.24,5,5v70.63
			C-9226.3,194.77-9228.53,197.01-9231.3,197.01z" />
		</g>
	</mask>
	<path class="st1" d="M-9079.55,79.55C-9159.1,0-9280.9,0-9500,0s-340.9,0-420.45,79.55C-10000,159.1-10000,280.9-10000,500
	s0,340.9,79.55,420.45C-9840.9,1000-9719.1,1000-9500,1000s340.9,0,420.45-79.55C-9000,840.9-9000,719.1-9000,500
	S-9000,159.1-9079.55,79.55z" />
	<path d="M500.77,240.66h-3.93h-6.56h-60.13c-11.89,0-23.1,5.6-30.23,15.12l-11.9,15.87C347.22,239.3,295.84,220,240.08,220
	C107.7,220,0,328.81,0,462.55c0,51.6,16.03,95.8,46.72,129.81C23.29,616.68,10,648.4,10,673.49c0,53.63,30,135.61,148.95,135.61
	c102.35,0,161.84-29.12,219.64-29.12c15.42,0,11.82,7.56,11.88,18.39c-0.22,99.86-45.09,107.16-191.5,107.16
	c-26.68,0-82.11-4.52-102.01-8.27c-3.22-0.61-6.34,1.39-7.19,4.55L70.2,973.47c-0.94,3.47,1.19,7.03,4.7,7.79
	c32.9,7.11,92.96,8.73,124.05,8.73c248.97,0,274.54-98.88,274.54-210.02c0-39.22-4.45-93.37-80.03-93.37
	c-63.89,0-132.38,36.12-216.85,36.12C108,722.73,88,704,88,672c0-13.64,6.61-26.44,16.25-36.35c37.7,19.01,83.97,28.94,135.83,28.94
	c66.22,0,123.32-16.19,165.12-46.8c49.04-35.93,74.96-89.61,74.96-155.24c0-49.59-14.82-95.75-40.2-134.21l9.08-12.11h47.79v-0.02
	h3.93c2.76,0,5-2.24,5-5v-65.57C505.77,242.9,503.53,240.66,500.77,240.66z M240.08,592.8c-45.87,0-152.56-12.58-152.56-129.07
	c0-94.8,68.44-171.93,152.56-171.93s152.56,77.12,152.56,171.93C392.64,580.22,285.95,592.8,240.08,592.8z" />
	<path d="M1131,241h-74h-2h-2c-2.76,0-5,2.24-5,5v74c0,2.76,2.24,5,5,5h2h2h32v294.5c-25.36,51.94-93.81,70.5-145,70.5
	c-19.59,0-149-6.19-149-126V283c0-23.2-18.8-42-42-42h-74h-2h-2c-2.76,0-5,2.24-5,5v74c0,2.76,2.24,5,5,5h2h2h37v239
	c0,110.81,68.5,206,228,206c58.34,0,105.27-13.01,141.09-35.38c0,23.82,0,47.13,0,51.92c0,89.46-46.98,116.23-194.07,116.23
	c-27.54,0-77.92-2.77-100.32-6.01c-6.57-0.95-10.59-0.76-12.75,8.05l-0.01,0.04l-0.01,0.04l-17.08,62.78
	c-1.74,7.34-0.82,11.67,8.36,13.73C803.11,989,877.33,990,891.02,990c250.21,0,278.58-120.83,281.63-200h0.35V283
	C1173,259.8,1154.2,241,1131,241z" />
	<path
		d="M671,675h-2v0h-39V43c0-23.2-18.8-42-42-42h-79h-2h-2c-2.76,0-5,2.24-5,5v74c0,2.76,2.24,5,5,5h2h2h37v590h-39v0h-2
	c-2.76,0-5,2.24-5,5v74c0,2.76,2.24,5,5,5h4c0,0,0,0,0,0H667c0,0,0,0,0,0h4c2.76,0,5-2.24,5-5v-74C676,677.24,673.76,675,671,675z" />
	<path d="M2647,250l-2.59-0.83l-0.03,0.01C2612.9,236.87,2575.85,230,2533.5,230c-71.87,0-121.1,25.18-153.5,60.35V283
	c0-23.2-18.8-42-42-42h-79h-2h-2c-2.76,0-5,2.24-5,5v74c0,2.76,2.24,5,5,5h2h2h37v240v111h-27v0h-2c-2.76,0-5,2.24-5,5v74
	c0,2.76,2.24,5,5,5h4c0,0,0,0,0,0H2417c0,0,0,0,0,0h4c2.76,0,5-2.24,5-5v-74c0-2.76-2.24-5-5-5h-2v0h-39V565V404.42
	c22.85-59.07,86.11-84.7,153.5-84.7c8.65,0,39.65,0.05,71.5,10.28c7,2,10,3,14-4l30-65C2652,255,2651,252,2647,250z" />
	<path d="M2238,676h-2v0h-26.25V436c0.08,0,0.17,0,0.25,0c0-114.81-73.5-206-228-206c-52.27,0-92.52,12.37-123,32.91V42
	c0-23.2-18.8-42-42-42h-79h-2h-2c-2.76,0-5,2.24-5,5v74c0,2.76,2.24,5,5,5h2h2h37v592h-39v0h-2c-2.76,0-5,2.24-5,5v74
	c0,2.76,2.24,5,5,5h4c0,0,0,0,0,0H1884c0,0,0,0,0,0h4c2.76,0,5-2.24,5-5v-74c0-2.76-2.24-5-5-5h-2v0h-27V356.6
	c36.17-42.63,95.53-52.6,123-52.6c19.59,0,143,9.19,143,132h-0.25v240H2086v0h-2c-2.76,0-5,2.24-5,5v74c0,2.76,2.24,5,5,5h4
	c0,0,0,0,0,0H2234c0,0,0,0,0,0h4c2.76,0,5-2.24,5-5v-74C2243,678.24,2240.76,676,2238,676z" />
	<path
		d="M1721.99,460c-0.48-133.51-104.79-230-230.49-230c-59.98,0-114.17,25.6-154.5,66.12V282c0-23.2-18.8-42-42-42h-79h-2h-2
	c-2.76,0-5,2.24-5,5v74c0,2.76,2.24,5,5,5h2h2h37v383v161v32h-37h-2h-2c-2.76,0-5,2.24-5,5v74c0,2.76,2.24,5,5,5h2h2h79
	c23.2,0,42-18.8,42-42v-74V710.14c31.83,36.2,80.71,59.86,153,59.86c154.5,0,232-91.19,232-206V460H1721.99z M1638,558
	c0,122.81-111,134-148,134c-55,0-151-24.19-151-144v-90.89c0-90.09,72.44-153.88,152.5-153.88S1638,369.94,1638,466.61V558z" />
	<path d="M-7499.23,240.66h-3.93h-6.56h-60.13c-11.89,0-23.1,5.6-30.23,15.12l-11.9,15.87c-40.8-32.34-92.17-51.64-147.93-51.64
	C-7892.3,220-8000,328.81-8000,462.55c0,51.6,16.03,95.8,46.72,129.81c-23.43,24.32-36.72,56.04-36.72,81.13
	c0,53.63,30,135.61,148.95,135.61c102.35,0,161.84-29.12,219.64-29.12c15.42,0,11.82,7.56,11.88,18.39
	c-0.22,99.86-45.09,107.16-191.5,107.16c-26.68,0-82.11-4.52-102.01-8.27c-3.22-0.61-6.34,1.39-7.19,4.55l-19.56,71.66
	c-0.94,3.47,1.19,7.03,4.7,7.79c32.9,7.11,92.96,8.73,124.05,8.73c248.97,0,274.54-98.88,274.54-210.02
	c0-39.22-4.45-93.37-80.03-93.37c-63.89,0-132.38,36.12-216.85,36.12C-7892,722.73-7912,704-7912,672
	c0-13.64,6.61-26.44,16.25-36.35c37.7,19.01,83.97,28.94,135.83,28.94c66.22,0,123.32-16.19,165.12-46.8
	c49.04-35.93,74.96-89.61,74.96-155.24c0-49.59-14.82-95.75-40.2-134.21l9.08-12.11h47.79v-0.02h3.93c2.76,0,5-2.24,5-5v-65.57
	C-7494.23,242.9-7496.47,240.66-7499.23,240.66z M-7759.92,592.8c-45.87,0-152.56-12.58-152.56-129.07
	c0-94.8,68.44-171.93,152.56-171.93c84.12,0,152.56,77.12,152.56,171.93C-7607.36,580.22-7714.05,592.8-7759.92,592.8z" />
	<path d="M-6869,241h-74h-2h-2c-2.76,0-5,2.24-5,5v74c0,2.76,2.24,5,5,5h2h2h32v294.5c-25.36,51.94-93.81,70.5-145,70.5
	c-19.59,0-149-6.19-149-126V283c0-23.2-18.8-42-42-42h-74h-2h-2c-2.76,0-5,2.24-5,5v74c0,2.76,2.24,5,5,5h2h2h37v239
	c0,110.81,68.5,206,228,206c58.34,0,105.27-13.01,141.09-35.38c0,23.82,0,47.13,0,51.92c0,89.46-46.98,116.23-194.07,116.23
	c-27.54,0-77.92-2.77-100.32-6.01c-6.57-0.95-10.59-0.76-12.75,8.05l-0.01,0.04l-0.01,0.04l-17.08,62.78
	c-1.74,7.34-0.82,11.67,8.36,13.73c33.9,7.61,108.12,8.61,121.81,8.61c250.2,0,278.58-120.83,281.63-200h0.35V283
	C-6827,259.8-6845.8,241-6869,241z" />
	<path d="M-7329,675h-2v0h-39V43c0-23.2-18.8-42-42-42h-79h-2h-2c-2.76,0-5,2.24-5,5v74c0,2.76,2.24,5,5,5h2h2h37v590h-39v0h-2
	c-2.76,0-5,2.24-5,5v74c0,2.76,2.24,5,5,5h4c0,0,0,0,0,0H-7333c0,0,0,0,0,0h4c2.76,0,5-2.24,5-5v-74
	C-7324,677.24-7326.24,675-7329,675z" />
	<path d="M-5353,250l-2.59-0.83l-0.03,0.01c-31.48-12.31-68.52-19.18-110.88-19.18c-71.87,0-121.1,25.18-153.5,60.35V283
	c0-23.2-18.8-42-42-42h-79h-2h-2c-2.76,0-5,2.24-5,5v74c0,2.76,2.24,5,5,5h2h2h37v240v111h-27v0h-2c-2.76,0-5,2.24-5,5v74
	c0,2.76,2.24,5,5,5h4c0,0,0,0,0,0H-5583c0,0,0,0,0,0h4c2.76,0,5-2.24,5-5v-74c0-2.76-2.24-5-5-5h-2v0h-39V565V404.42
	c22.85-59.07,86.11-84.7,153.5-84.7c8.65,0,39.65,0.05,71.5,10.28c7,2,10,3,14-4l30-65C-5348,255-5349,252-5353,250z" />
	<path d="M-5762,676h-2v0h-26.25V436c0.08,0,0.17,0,0.25,0c0-114.81-73.5-206-228-206c-52.27,0-92.52,12.37-123,32.91V42
	c0-23.2-18.8-42-42-42h-79h-2h-2c-2.76,0-5,2.24-5,5v74c0,2.76,2.24,5,5,5h2h2h37v592h-39v0h-2c-2.76,0-5,2.24-5,5v74
	c0,2.76,2.24,5,5,5h4c0,0,0,0,0,0H-6116c0,0,0,0,0,0h4c2.76,0,5-2.24,5-5v-74c0-2.76-2.24-5-5-5h-2v0h-27V356.6
	c36.17-42.63,95.53-52.6,123-52.6c19.59,0,143,9.19,143,132h-0.25v240H-5914v0h-2c-2.76,0-5,2.24-5,5v74c0,2.76,2.24,5,5,5h4
	c0,0,0,0,0,0H-5766c0,0,0,0,0,0h4c2.76,0,5-2.24,5-5v-74C-5757,678.24-5759.24,676-5762,676z" />
	<path
		d="M-6278.01,460c-0.48-133.51-104.79-230-230.49-230c-59.98,0-114.17,25.6-154.5,66.12V282c0-23.2-18.8-42-42-42h-79h-2h-2
	c-2.76,0-5,2.24-5,5v74c0,2.76,2.24,5,5,5h2h2h37v383v161v32h-37h-2h-2c-2.76,0-5,2.24-5,5v74c0,2.76,2.24,5,5,5h2h2h79
	c23.2,0,42-18.8,42-42v-74V710.14c31.83,36.2,80.71,59.86,153,59.86c154.5,0,232-91.19,232-206V460H-6278.01z M-6362,558
	c0,122.81-111,134-148,134c-55,0-151-24.19-151-144v-90.89c0-90.09,72.44-153.88,152.5-153.88s146.5,66.71,146.5,163.38V558z" />
	<path d="M-5889.42,829.12L-5889.42,829.12c-5.49-0.01-18.26-1.35-18.26-13.81c0-10.24,8.02-18.26,18.26-18.26
	c4.24,0,9.49-0.01,13.83-0.02v5.57h17V780l-8.52,0.02c0,0-13.38,0.03-22.31,0.03c-19.44,0-35.26,15.82-35.26,35.26
	c0,18.33,14.03,30.67,34.95,30.79v0.01c11.08,0,19.76,8.68,19.76,19.76c0,13.59-13.82,15.05-19.76,15.05h-19.76v-4.68h-17v21.68
	h36.76c21.99,0,36.76-12.88,36.76-32.05C-5852.97,845.71-5869.3,829.29-5889.42,829.12z" />
	<polygon points="-5839.86,780 -5839.86,802.14 -5822.86,802.14 -5822.86,797 -5808.05,797 -5808.05,879.97 -5812.88,879.97
	-5812.88,896.97 -5785.91,896.97 -5785.91,879.97 -5791.05,879.97 -5791.05,797 -5775.32,797 -5775.32,802.14 -5758.32,802.14
	-5758.32,780 " />
	<polygon points="-5446.68,801.98 -5446.68,779.71 -5528.68,779.71 -5528.68,801.98 -5511.59,801.98 -5511.59,796.81
	-5496.69,796.81 -5496.69,881.15 -5511.59,881.15 -5511.59,875.99 -5528.68,875.99 -5528.68,898.25 -5446.68,898.25
	-5446.68,875.99 -5463.78,875.99 -5463.78,881.15 -5479.59,881.15 -5479.59,796.81 -5463.78,796.81 -5463.78,801.98 " />
	<path
		d="M-5646.91,780h-26.97v17h4.65v59.85c0,18.44-6.34,24.97-24.23,24.97c-17.43,0-23.32-6.3-23.32-24.97V797h4.86v-17h-26.97v17
	h5.11v59.85c0,13.79,3.1,23.89,9.49,30.89c6.81,7.46,16.89,11.08,30.83,11.08c27.36,0,41.23-14.12,41.23-41.97V797h5.32V780z" />
	<path d="M-5595.27,780h-32.23v17h6v85.09h-6v17h32.23c35.85,0,53.27-17.24,53.27-52.71C-5542,806.06-5562.91,780-5595.27,780z
	 M-5595.27,882.09h-9.23V797h9.23c26.74,0,36.27,25.51,36.27,49.38C-5559,872.41-5568.83,882.09-5595.27,882.09z" />
	<path d="M-5381.81,898.49c-17.26,0-30.64-4.78-39.77-14.22c-9.11-9.41-13.73-23.24-13.73-41.1c0-17.96,4.5-33.5,13.02-44.94
	c9.61-12.91,23.61-19.74,40.49-19.74s30.88,6.82,40.49,19.74c8.52,11.44,13.02,26.99,13.02,44.94c0,17.86-4.62,31.69-13.73,41.1
	C-5351.17,893.71-5364.55,898.49-5381.81,898.49z M-5381.81,795.5c-26.92,0-36.5,24.63-36.5,47.68c0,26.5,11.26,38.32,36.5,38.32
	s36.5-11.82,36.5-38.32C-5345.31,820.13-5354.9,795.5-5381.81,795.5z" />
	<path d="M5188.61,458.19c-0.53-125.82-98.88-228.33-223.74-228.33c-0.18,0-0.36,0.02-0.55,0.03c-0.18-0.01-0.36-0.03-0.55-0.03
	c-125.2,0-223.75,103.06-223.75,229.35h0.13v101.93h0c0.4,109.7,65.74,208.86,223.74,208.86c0.17,0,0.34-0.01,0.51-0.01
	c0.17,0.01,0.34,0.01,0.51,0.01c158,0,223.34-99.15,223.74-208.86h0V458.19H5188.61z M4964.93,687.4c-0.17,0-0.34,0.01-0.51,0.02
	c-0.17-0.01-0.34-0.02-0.51-0.02c-54.65,0-140.16-8.22-140.16-127.27V458.19h-0.12c0.46-89.01,60.9-155.57,140.15-155.57
	c0.18,0,0.36-0.02,0.55-0.03c0.18,0.01,0.36,0.03,0.55,0.03c79.55,0,140.16,67.07,140.16,156.59h0.06v100.92
	C5105.09,679.17,5019.58,687.4,4964.93,687.4z" />
	<g>
		<path d="M4723.54,675.64l-36.55,0V281.79c0-23.2-18.81-42-42-42h-85.46c-1.41,0-2.55,1.14-2.55,2.55v78.91
		c0,1.41,1.14,2.55,2.55,2.55h43.46v351.85l-38.36,0c-1.41,0-2.55,1.14-2.55,2.55v78.91c0,1.41,1.14,2.55,2.55,2.55h158.92
		c1.41,0,2.55-1.14,2.55-2.55v-78.91C4726.09,676.79,4724.95,675.64,4723.54,675.64z" />
		<path d="M4583.43,154.83c10.2,7.48,24.14,11.43,40.31,11.43c16.17,0,30.11-3.95,40.31-11.43c11.97-8.77,18.3-21.88,18.3-37.9
		c0-32.65-26.29-59.22-58.61-59.22c-32.32,0-58.61,26.56-58.61,59.22C4565.13,132.95,4571.46,146.06,4583.43,154.83z" />
	</g>
	<path d="M3504.32,239.73l-93.19,0V55.51c0-2.41-1.95-4.36-4.36-4.36h-75.44c-2.41,0-4.36,1.95-4.36,4.36v184.22l-55.04,0
	c-1.41,0-2.55,1.14-2.55,2.55v79.06c0,1.41,1.14,2.55,2.55,2.55l55.04,0v389.27c0,25.65,20.79,46.44,46.44,46.44h92.82
	c0.1,0,0.2-0.01,0.31-0.02c0.19,0.05,0.39,0.08,0.6,0.08h8.93c1.41,0,2.55-1.14,2.55-2.55v-79.06c0-1.41-1.14-2.55-2.55-2.55h-8.93
	c-0.04,0-0.08,0.01-0.12,0.01c-0.26-0.05-0.52-0.08-0.79-0.08h-50.74c-2.41,0-4.36-1.95-4.36-4.36V323.88l93.19,0
	c1.41,0,2.55-1.14,2.55-2.55v-79.06C3506.86,240.87,3505.72,239.73,3504.32,239.73z" />
	<path d="M3172.88,460.37c-63.02,0-110.27,20.43-193.58,20.43c-67.68,0-77.11-18.57-77.11-50.13c0-25.32-6.99-118.97,183.68-118.97
	c58.91,0,107.84,22.84,125.84,26.91c6.47,1.47,10.6,0.76,12.75-8.05l0.01-0.04l0.01-0.04l17.09-62.8
	c1.74-7.34,0.42-10.35-8.37-13.73c-17.07-6.58-84.34-24.41-147.33-24.41c-257.53,0-264.87,190.6-264.87,218.19
	c0,52.1,29.61,113.05,135.87,113.05c100.95,0,149.42-13.43,206.42-13.43c15.21,0,11.65,7.45,11.72,18.14
	c-0.22,98.49-53,120.98-183.77,120.98c-26.31,0-121.75-4.45-141.38-8.15c-3.18-0.6-6.25,1.37-7.09,4.49l-19.29,70.68
	c-0.92,3.43,1.17,6.94,4.64,7.69c32.45,7.02,132.46,8.61,163.12,8.61c224.04,0,260.57-107.71,260.57-217.33
	C3251.81,513.78,3247.43,460.37,3172.88,460.37z" />
	<path
		d="M4483.64,83.47h43.16c1.41,0,2.55-1.14,2.55-2.55V2.55c0-1.41-1.14-2.55-2.55-2.55h-84.89c-23.05,0-41.73,18.68-41.73,41.73
	l-0.16,251.69c-40.11-39.23-93.43-63.89-152.31-63.89c-125.76,0-230.12,96.53-230.6,230.11h-0.01v104.05
	c0,114.86,77.54,206.1,232.11,206.1c70.76,0,119.09-22.66,150.98-57.55v5.63c0,23.05,18.68,41.73,41.73,41.73h84.89
	c1.41,0,2.55-1.14,2.55-2.55v-78.37c0-1.41-1.14-2.55-2.55-2.55h-43.16V83.47z M4249.2,691.75c-37.02,0-148.07-11.2-148.07-134.06
	v-91.43c0-96.71,66.47-163.46,146.57-163.46c78.5,0,149.67,61.3,152.48,148.6v102.67C4396.82,668.41,4303.23,691.75,4249.2,691.75z" />
	<path
		d="M-7499.23,1440.66h-3.93h-6.56h-60.13c-11.89,0-23.1,5.6-30.23,15.12l-11.9,15.87c-40.8-32.34-92.17-51.64-147.93-51.64
	c-132.38,0-240.08,108.81-240.08,242.55c0,51.6,16.03,95.8,46.72,129.81c-23.43,24.32-36.72,56.04-36.72,81.13
	c0,53.63,30,135.61,148.95,135.61c102.35,0,161.84-29.12,219.64-29.12c15.42,0,11.82,7.56,11.88,18.39
	c-0.22,99.86-45.09,107.16-191.5,107.16c-26.68,0-82.11-4.52-102.01-8.27c-3.22-0.61-6.34,1.39-7.19,4.55l-19.56,71.66
	c-0.94,3.47,1.19,7.03,4.7,7.79c32.9,7.11,92.96,8.73,124.05,8.73c248.97,0,274.54-98.88,274.54-210.02
	c0-39.22-4.45-93.37-80.03-93.37c-63.89,0-132.38,36.12-216.85,36.12c-68.62,0-88.62-18.73-88.62-50.73
	c0-13.64,6.61-26.44,16.25-36.35c37.7,19.01,83.97,28.94,135.83,28.94c66.22,0,123.32-16.19,165.12-46.8
	c49.04-35.93,74.96-89.61,74.96-155.24c0-49.59-14.82-95.75-40.2-134.21l9.08-12.11h47.79v-0.02h3.93c2.76,0,5-2.24,5-5v-65.57
	C-7494.23,1442.9-7496.47,1440.66-7499.23,1440.66z M-7759.92,1792.8c-45.87,0-152.56-12.58-152.56-129.07
	c0-94.8,68.44-171.93,152.56-171.93c84.12,0,152.56,77.12,152.56,171.93C-7607.36,1780.22-7714.05,1792.8-7759.92,1792.8z" />
	<path d="M-6869,1441h-74h-2h-2c-2.76,0-5,2.24-5,5v74c0,2.76,2.24,5,5,5h2h2h32v294.5c-25.36,51.94-93.81,70.5-145,70.5
	c-19.59,0-149-6.19-149-126v-281c0-23.2-18.8-42-42-42h-74h-2h-2c-2.76,0-5,2.24-5,5v74c0,2.76,2.24,5,5,5h2h2h37v239
	c0,110.81,68.5,206,228,206c58.34,0,105.27-13.01,141.09-35.38c0,23.82,0,47.13,0,51.92c0,89.46-46.98,116.23-194.07,116.23
	c-27.54,0-77.92-2.77-100.32-6.01c-6.57-0.95-10.59-0.76-12.75,8.05l-0.01,0.04l-0.01,0.04l-17.08,62.78
	c-1.74,7.34-0.82,11.67,8.36,13.73c33.9,7.61,108.12,8.61,121.81,8.61c250.2,0,278.58-120.83,281.63-200h0.35v-507
	C-6827,1459.8-6845.8,1441-6869,1441z" />
	<path d="M-7329,1875h-2v0h-39v-632c0-23.2-18.8-42-42-42h-79h-2h-2c-2.76,0-5,2.24-5,5v74c0,2.76,2.24,5,5,5h2h2h37v590h-39v0h-2
	c-2.76,0-5,2.24-5,5v74c0,2.76,2.24,5,5,5h4c0,0,0,0,0,0H-7333c0,0,0,0,0,0h4c2.76,0,5-2.24,5-5v-74
	C-7324,1877.24-7326.24,1875-7329,1875z" />
	<path
		d="M-5353,1450l-2.59-0.83l-0.03,0.01c-31.48-12.31-68.52-19.18-110.88-19.18c-71.87,0-121.1,25.18-153.5,60.35V1483
	c0-23.2-18.8-42-42-42h-79h-2h-2c-2.76,0-5,2.24-5,5v74c0,2.76,2.24,5,5,5h2h2h37v240v111h-27v0h-2c-2.76,0-5,2.24-5,5v74
	c0,2.76,2.24,5,5,5h4c0,0,0,0,0,0H-5583c0,0,0,0,0,0h4c2.76,0,5-2.24,5-5v-74c0-2.76-2.24-5-5-5h-2v0h-39v-111v-160.58
	c22.85-59.07,86.11-84.7,153.5-84.7c8.65,0,39.65,0.05,71.5,10.28c7,2,10,3,14-4l30-65C-5348,1455-5349,1452-5353,1450z" />
	<path d="M-5762,1876h-2v0h-26.25v-240c0.08,0,0.17,0,0.25,0c0-114.81-73.5-206-228-206c-52.27,0-92.52,12.37-123,32.91V1242
	c0-23.2-18.8-42-42-42h-79h-2h-2c-2.76,0-5,2.24-5,5v74c0,2.76,2.24,5,5,5h2h2h37v592h-39v0h-2c-2.76,0-5,2.24-5,5v74
	c0,2.76,2.24,5,5,5h4c0,0,0,0,0,0H-6116c0,0,0,0,0,0h4c2.76,0,5-2.24,5-5v-74c0-2.76-2.24-5-5-5h-2v0h-27v-319.4
	c36.17-42.63,95.53-52.6,123-52.6c19.59,0,143,9.19,143,132h-0.25v240H-5914v0h-2c-2.76,0-5,2.24-5,5v74c0,2.76,2.24,5,5,5h4
	c0,0,0,0,0,0H-5766c0,0,0,0,0,0h4c2.76,0,5-2.24,5-5v-74C-5757,1878.24-5759.24,1876-5762,1876z" />
	<path
		d="M-6278.01,1660c-0.48-133.51-104.79-230-230.49-230c-59.98,0-114.17,25.6-154.5,66.12V1482c0-23.2-18.8-42-42-42h-79h-2h-2
	c-2.76,0-5,2.24-5,5v74c0,2.76,2.24,5,5,5h2h2h37v383v161v32h-37h-2h-2c-2.76,0-5,2.24-5,5v74c0,2.76,2.24,5,5,5h2h2h79
	c23.2,0,42-18.8,42-42v-74v-157.86c31.83,36.2,80.71,59.86,153,59.86c154.5,0,232-91.19,232-206v-104H-6278.01z M-6362,1758
	c0,122.81-111,134-148,134c-55,0-151-24.19-151-144v-90.89c0-90.09,72.44-153.88,152.5-153.88s146.5,66.71,146.5,163.38V1758z" />
	<path
		d="M-5579.02,2100.07c-0.15-35.17-27.64-63.82-62.54-63.82c-0.05,0-0.1,0.01-0.15,0.01c-0.05,0-0.1-0.01-0.15-0.01
	c-34.99,0-62.54,28.81-62.54,64.11h0.04v28.49h0c0.11,30.66,18.38,58.38,62.54,58.38c0.05,0,0.1,0,0.14,0c0.05,0,0.09,0,0.14,0
	c44.16,0,62.43-27.71,62.54-58.38h0v-28.78H-5579.02z M-5641.54,2164.14c-0.05,0-0.1,0-0.14,0c-0.05,0-0.09,0-0.14,0
	c-15.28,0-39.18-2.3-39.18-35.57v-28.49h-0.03c0.13-24.88,17.02-43.48,39.17-43.48c0.05,0,0.1-0.01,0.15-0.01
	c0.05,0,0.1,0.01,0.15,0.01c22.24,0,39.18,18.75,39.18,43.77h0.02v28.21C-5602.36,2161.84-5626.26,2164.14-5641.54,2164.14z" />
	<path d="M-5933.03,2039.01h-1.23h-1.23h-21.26c-6.44,0-11.67,5.22-11.67,11.67l0,100.86c-10.09,12.01-26.76,14.82-34.46,14.82
	c-5.47,0-39.94-2.57-39.94-36.87h0.07l-0.25-67.07h9.66h1.25h1.24c0.39,0,0.71-0.32,0.71-0.71v-22.06c0-0.39-0.32-0.71-0.71-0.71
	h-1.24h-1.25h-21.43c-6.49,0-11.74,5.26-11.74,11.74l0,81.36c1.06,30.86,21.63,54.99,63.64,54.99c15.22,0,26.79-3.76,35.43-9.94
	c1.8,4.16,5.95,7.08,10.78,7.08h22.64v-23.48h-10.9l-0.15-98.34h9.6h1.23h1.23c0.39,0,0.71-0.32,0.71-0.71v-21.91
	C-5932.31,2039.32-5932.63,2039.01-5933.03,2039.01z" />
	<g>
		<path d="M-5714.68,2160.85h-1.24l0,0h-8.97v-110.09c0-6.48-5.26-11.74-11.74-11.74h-21.4h-1.24h-1.24c-0.39,0-0.71,0.32-0.71,0.71
		v22.06c0,0.39,0.32,0.71,0.71,0.71h1.24h1.24h9.66v98.35h-9.48l0,0h-1.24c-0.39,0-0.71,0.32-0.71,0.71v22.06
		c0,0.39,0.32,0.71,0.71,0.71h2.49c0,0,0,0,0,0h39.44c0,0,0,0,0,0h2.49c0.39,0,0.71-0.32,0.71-0.71v-22.06
		C-5713.97,2161.17-5714.29,2160.85-5714.68,2160.85z" />
		<path d="M-5753.85,2015.28c2.85,2.09,6.75,3.19,11.27,3.19s8.42-1.1,11.27-3.19c3.35-2.45,5.12-6.11,5.12-10.59
		c0-9.13-7.35-16.55-16.38-16.55c-9.03,0-16.38,7.42-16.38,16.55C-5758.96,2009.16-5757.19,2012.82-5753.85,2015.28z" />
	</g>
	<path d="M-6082.84,2039.01h-1.28v0h-24.77v-51.49c0-0.67-0.55-1.22-1.22-1.22h-21.09c-0.67,0-1.22,0.55-1.22,1.22v51.49h-14.14v0
	h-1.25c-0.39,0-0.71,0.32-0.71,0.71v22.1c0,0.39,0.32,0.71,0.71,0.71h2.5c0,0,0,0,0,0h12.89v108.81c0,7.17,5.81,12.98,12.98,12.98
	h25.94c0.03,0,0.06,0,0.09,0c0.05,0.01,0.11,0.02,0.17,0.02h2.5c0.39,0,0.71-0.32,0.71-0.71v-22.1c0-0.39-0.32-0.71-0.71-0.71h-2.5
	c-0.01,0-0.02,0-0.03,0c-0.07-0.01-0.15-0.02-0.22-0.02h-14.18c-0.67,0-1.22-0.55-1.22-1.22v-97.04h23.55c0,0,0,0,0,0h2.5
	c0.39,0,0.71-0.32,0.71-0.71v-22.1C-6082.13,2039.32-6082.45,2039.01-6082.84,2039.01z" />
	<path d="M-6183.08,2100.68c-17.61,0-30.82,5.71-54.11,5.71c-18.92,0-21.55-5.19-21.55-14.01c0-7.08-1.95-33.25,51.34-33.25
	c16.47,0,30.14,6.38,35.17,7.52c1.81,0.41,2.96,0.21,3.56-2.25l0-0.01l0-0.01l4.78-17.55c0.49-2.05,0.12-2.89-2.34-3.84
	c-4.77-1.84-23.58-6.82-41.18-6.82c-71.98,0-74.03,53.27-74.03,60.99c0,14.56,8.28,31.6,37.98,31.6c28.22,0,41.76-3.75,57.7-3.75
	c4.25,0,3.26,2.08,3.28,5.07c-0.06,27.53-14.81,33.82-51.37,33.82c-7.35,0-34.03-1.25-39.52-2.28c-0.89-0.17-1.75,0.38-1.98,1.25
	l-5.39,19.75c-0.26,0.96,0.33,1.94,1.3,2.15c9.07,1.96,37.02,2.41,45.59,2.41c62.62,0,72.83-30.11,72.83-60.75
	C-6161.02,2115.61-6162.24,2100.68-6183.08,2100.68z" />
	<path d="M-5789.69,1995.33h9.6h1.23h1.23c0.39,0,0.71-0.32,0.71-0.71v-21.91c0-0.39-0.32-0.71-0.71-0.71h-1.23h-1.23h-21.26
	c-6.44,0-11.67,5.22-11.67,11.67l-0.05,70.35c-11.21-10.97-26.11-17.86-42.57-17.86c-35.15,0-64.32,26.98-64.46,64.32h0v29.08
	c0,32.11,21.67,57.61,64.88,57.61c19.78,0,33.29-6.33,42.2-16.09v1.57c0,6.44,5.22,11.67,11.67,11.67h21.26h1.23h1.23
	c0.39,0,0.71-0.32,0.71-0.71v-21.91c0-0.39-0.32-0.71-0.71-0.71h-1.23h-1.23h-9.6V1995.33z M-5855.22,2165.35
	c-10.35,0-41.39-3.13-41.39-37.47v-25.56c0-27.03,18.58-45.69,40.97-45.69c21.94,0,41.83,17.13,42.62,41.53v28.7
	C-5813.96,2158.83-5840.12,2165.35-5855.22,2165.35z" />
	<path d="M4008.95,320.64v-78.37c0-1.41-1.14-2.55-2.55-2.55h-84.89c-23.05,0-41.73,18.69-41.73,41.73l0.01,360.86
	c-36.11,42.98-95.75,53.01-123.3,53.01c-19.58,0-142.89-9.18-142.89-131.9h0.25l-0.91-239.97h43.47c1.41,0,2.55-1.14,2.55-2.55
	v-78.93c0-1.41-1.14-2.55-2.55-2.55h-85.57c-23.2,0-42.01,18.81-42.01,42.01l0.01,291.09c3.81,110.4,77.39,196.73,227.66,196.73
	c54.46,0,95.85-13.44,126.75-35.56c6.46,14.9,21.28,25.32,38.55,25.32l82.16-0.04c2.76,0,5-2.24,5-5v-74c0-2.76-2.24-5-5-5
	l-40.16,0.03l-0.55-351.84h43.16C4007.81,323.19,4008.95,322.05,4008.95,320.64z" />
	<path d="M-3499.23,240.66h-3.93h-6.56h-60.13c-11.89,0-23.1,5.6-30.23,15.12l-11.9,15.87c-40.8-32.34-92.17-51.64-147.93-51.64
	C-3892.3,220-4000,328.81-4000,462.55c0,51.6,16.03,95.8,46.72,129.81c-23.43,24.32-36.72,56.04-36.72,81.13
	c0,53.63,30,135.61,148.95,135.61c102.35,0,161.84-29.12,219.64-29.12c15.42,0,11.82,7.56,11.88,18.39
	c-0.22,99.86-45.09,107.16-191.5,107.16c-26.68,0-82.11-4.52-102.01-8.27c-3.22-0.61-6.34,1.39-7.19,4.55l-19.56,71.66
	c-0.94,3.47,1.19,7.03,4.7,7.79c32.9,7.11,92.96,8.73,124.05,8.73c248.97,0,274.54-98.88,274.54-210.02
	c0-39.22-4.45-93.37-80.03-93.37c-63.89,0-132.38,36.12-216.85,36.12C-3892,722.73-3912,704-3912,672
	c0-13.64,6.61-26.44,16.25-36.35c37.7,19.01,83.97,28.94,135.83,28.94c66.22,0,123.32-16.19,165.12-46.8
	c49.04-35.93,74.96-89.61,74.96-155.24c0-49.59-14.82-95.75-40.2-134.21l9.08-12.11h47.79v-0.02h3.93c2.76,0,5-2.24,5-5v-65.57
	C-3494.23,242.9-3496.47,240.66-3499.23,240.66z M-3759.92,592.8c-45.87,0-152.56-12.58-152.56-129.07
	c0-94.8,68.44-171.93,152.56-171.93c84.12,0,152.56,77.12,152.56,171.93C-3607.36,580.22-3714.05,592.8-3759.92,592.8z" />
	<path d="M-2869,241h-74h-2h-2c-2.76,0-5,2.24-5,5v74c0,2.76,2.24,5,5,5h2h2h32v294.5c-25.36,51.94-93.81,70.5-145,70.5
	c-19.59,0-149-6.19-149-126V283c0-23.2-18.8-42-42-42h-74h-2h-2c-2.76,0-5,2.24-5,5v74c0,2.76,2.24,5,5,5h2h2h37v239
	c0,110.81,68.5,206,228,206c58.34,0,105.27-13.01,141.09-35.38c0,23.82,0,47.13,0,51.92c0,89.46-46.98,116.23-194.07,116.23
	c-27.54,0-77.92-2.77-100.32-6.01c-6.57-0.95-10.59-0.76-12.75,8.05l-0.01,0.04l-0.01,0.04l-17.08,62.78
	c-1.74,7.34-0.82,11.67,8.36,13.73c33.9,7.61,108.12,8.61,121.81,8.61c250.21,0,278.58-120.83,281.63-200h0.35V283
	C-2827,259.8-2845.8,241-2869,241z" />
	<path d="M-3329,675h-2v0h-39V43c0-23.2-18.8-42-42-42h-79h-2h-2c-2.76,0-5,2.24-5,5v74c0,2.76,2.24,5,5,5h2h2h37v590h-39v0h-2
	c-2.76,0-5,2.24-5,5v74c0,2.76,2.24,5,5,5h4c0,0,0,0,0,0H-3333c0,0,0,0,0,0h4c2.76,0,5-2.24,5-5v-74
	C-3324,677.24-3326.24,675-3329,675z" />
	<path d="M-1353,250l-2.59-0.83l-0.03,0.01c-31.48-12.31-68.52-19.18-110.87-19.18c-71.87,0-121.1,25.18-153.5,60.35V283
	c0-23.2-18.8-42-42-42h-79h-2h-2c-2.76,0-5,2.24-5,5v74c0,2.76,2.24,5,5,5h2h2h37v240v111h-27v0h-2c-2.76,0-5,2.24-5,5v74
	c0,2.76,2.24,5,5,5h4c0,0,0,0,0,0H-1583c0,0,0,0,0,0h4c2.76,0,5-2.24,5-5v-74c0-2.76-2.24-5-5-5h-2v0h-39V565V404.42
	c22.85-59.07,86.11-84.7,153.5-84.7c8.65,0,39.65,0.05,71.5,10.28c7,2,10,3,14-4l30-65C-1348,255-1349,252-1353,250z" />
	<path d="M-1762,676h-2v0h-26.25V436c0.08,0,0.17,0,0.25,0c0-114.81-73.5-206-228-206c-52.27,0-92.52,12.37-123,32.91V42
	c0-23.2-18.8-42-42-42h-79h-2h-2c-2.76,0-5,2.24-5,5v74c0,2.76,2.24,5,5,5h2h2h37v592h-39v0h-2c-2.76,0-5,2.24-5,5v74
	c0,2.76,2.24,5,5,5h4c0,0,0,0,0,0H-2116c0,0,0,0,0,0h4c2.76,0,5-2.24,5-5v-74c0-2.76-2.24-5-5-5h-2v0h-27V356.6
	c36.17-42.63,95.53-52.6,123-52.6c19.59,0,143,9.19,143,132h-0.25v240H-1914v0h-2c-2.76,0-5,2.24-5,5v74c0,2.76,2.24,5,5,5h4
	c0,0,0,0,0,0H-1766c0,0,0,0,0,0h4c2.76,0,5-2.24,5-5v-74C-1757,678.24-1759.24,676-1762,676z" />
	<path
		d="M-2278.01,460c-0.48-133.51-104.79-230-230.49-230c-59.98,0-114.17,25.6-154.5,66.12V282c0-23.2-18.8-42-42-42h-79h-2h-2
	c-2.76,0-5,2.24-5,5v74c0,2.76,2.24,5,5,5h2h2h37v383v161v32h-37h-2h-2c-2.76,0-5,2.24-5,5v74c0,2.76,2.24,5,5,5h2h2h79
	c23.2,0,42-18.8,42-42v-74V710.14c31.83,36.2,80.71,59.86,153,59.86c154.5,0,232-91.19,232-206V460H-2278.01z M-2362,558
	c0,122.81-111,134-148,134c-55,0-151-24.19-151-144v-90.89c0-90.09,72.44-153.88,152.5-153.88s146.5,66.71,146.5,163.38V558z" />
	<path d="M-1426.39,1327.19c-0.53-125.82-98.88-228.33-223.74-228.33c-0.18,0-0.36,0.02-0.55,0.03c-0.18-0.01-0.36-0.03-0.55-0.03
	c-125.2,0-223.75,103.06-223.75,229.35h0.13v101.93h0.01c0.4,109.7,65.74,208.86,223.74,208.86c0.17,0,0.34-0.01,0.51-0.01
	c0.17,0.01,0.34,0.01,0.51,0.01c158,0,223.34-99.15,223.74-208.86h0.01v-102.95H-1426.39z M-1650.07,1556.4
	c-0.17,0-0.34,0.01-0.51,0.02c-0.17-0.01-0.34-0.02-0.51-0.02c-54.65,0-140.16-8.22-140.16-127.27v-101.93h-0.12
	c0.46-89.01,60.9-155.57,140.15-155.57c0.18,0,0.36-0.02,0.55-0.03c0.18,0.01,0.36,0.03,0.55,0.03
	c79.55,0,140.16,67.07,140.16,156.59h0.06v100.92C-1509.91,1548.17-1595.42,1556.4-1650.07,1556.4z" />
	<g>
		<path d="M-1921.46,1544.64l-36.55,0v-393.85c0-23.2-18.81-42-42-42h-85.46c-1.41,0-2.55,1.14-2.55,2.55v78.91
		c0,1.41,1.14,2.55,2.55,2.55h43.46v351.85l-38.36,0c-1.41,0-2.55,1.14-2.55,2.55v78.91c0,1.41,1.14,2.55,2.55,2.55h158.92
		c1.41,0,2.55-1.14,2.55-2.55v-78.91C-1918.91,1545.79-1920.05,1544.64-1921.46,1544.64z" />
		<path d="M-2061.57,1023.83c10.2,7.48,24.14,11.43,40.31,11.43s30.11-3.95,40.31-11.43c11.97-8.77,18.3-21.88,18.3-37.9
		c0-32.65-26.29-59.22-58.61-59.22s-58.61,26.56-58.61,59.22C-2079.87,1001.95-2073.54,1015.06-2061.57,1023.83z" />
	</g>
	<path d="M-3241.68,1108.73l-93.19,0V924.51c0-2.41-1.95-4.36-4.36-4.36h-75.44c-2.41,0-4.36,1.95-4.36,4.36v184.22l-55.04,0
	c-1.41,0-2.55,1.14-2.55,2.55v79.06c0,1.41,1.14,2.55,2.55,2.55l55.04,0v389.27c0,25.65,20.79,46.44,46.44,46.44h92.82
	c0.1,0,0.2-0.01,0.31-0.02c0.19,0.05,0.39,0.08,0.6,0.08h8.93c1.41,0,2.55-1.14,2.55-2.55v-79.06c0-1.41-1.14-2.55-2.55-2.55h-8.93
	c-0.04,0-0.08,0.01-0.12,0.01c-0.26-0.05-0.52-0.08-0.79-0.08h-50.74c-2.41,0-4.36-1.95-4.36-4.36v-347.19l93.19,0
	c1.41,0,2.55-1.14,2.55-2.55v-79.06C-3239.14,1109.87-3240.28,1108.73-3241.68,1108.73z" />
	<path d="M-3593.12,1329.37c-63.02,0-110.27,20.43-193.58,20.43c-67.68,0-77.11-18.57-77.11-50.13c0-25.32-6.99-118.97,183.68-118.97
	c58.91,0,107.84,22.84,125.84,26.91c6.47,1.47,10.6,0.76,12.75-8.05l0.01-0.04l0.01-0.04l17.09-62.8
	c1.74-7.34,0.42-10.35-8.37-13.73c-17.07-6.58-84.34-24.41-147.33-24.41c-257.53,0-264.87,190.6-264.87,218.19
	c0,52.1,29.61,113.05,135.87,113.05c100.95,0,149.42-13.43,206.42-13.43c15.21,0,11.65,7.45,11.72,18.14
	c-0.22,98.49-53,120.98-183.77,120.98c-26.31,0-121.75-4.45-141.38-8.15c-3.18-0.6-6.25,1.37-7.09,4.49l-19.29,70.68
	c-0.92,3.43,1.17,6.94,4.64,7.69c32.45,7.02,132.46,8.61,163.12,8.61c224.04,0,260.57-107.71,260.57-217.33
	C-3514.19,1382.78-3518.57,1329.37-3593.12,1329.37z" />
	<path d="M-2187.36,952.47h43.16c1.41,0,2.55-1.14,2.55-2.55v-78.37c0-1.41-1.14-2.55-2.55-2.55h-84.89
	c-23.05,0-41.73,18.68-41.73,41.73l-0.16,251.69c-40.11-39.23-93.43-63.89-152.31-63.89c-125.76,0-230.12,96.53-230.6,230.11h-0.01
	v104.05c0,114.86,77.54,206.1,232.11,206.1c70.76,0,119.09-22.66,150.98-57.55v5.63c0,23.05,18.68,41.73,41.73,41.73h84.89
	c1.41,0,2.55-1.14,2.55-2.55v-78.37c0-1.41-1.14-2.55-2.55-2.55h-43.16V952.47z M-2421.8,1560.75
	c-37.02,0-148.07-11.2-148.07-134.06v-91.43c0-96.71,66.47-163.46,146.57-163.46c78.5,0,149.67,61.3,152.48,148.6v102.67
	C-2274.18,1537.41-2367.77,1560.75-2421.8,1560.75z" />
	<path d="M-2687.05,1189.64v-78.37c0-1.41-1.14-2.55-2.55-2.55h-84.89c-23.05,0-41.73,18.69-41.73,41.73l0.01,360.86
	c-36.11,42.98-95.75,53.01-123.3,53.01c-19.58,0-142.89-9.18-142.89-131.9h0.25l-0.91-239.97h43.47c1.41,0,2.55-1.14,2.55-2.55
	v-78.93c0-1.41-1.14-2.55-2.55-2.55h-85.57c-23.2,0-42.01,18.81-42.01,42.01l0.01,291.09c3.81,110.4,77.39,196.73,227.66,196.73
	c54.46,0,95.85-13.44,126.75-35.56c6.46,14.9,21.28,25.32,38.55,25.32l82.16-0.04c2.76,0,5-2.24,5-5v-74c0-2.76-2.24-5-5-5
	l-40.16,0.03l-0.55-351.84h43.16C-2688.19,1192.19-2687.05,1191.05-2687.05,1189.64z" />
</svg>