<?xml version="1.0" encoding="utf-8"?>
<svg version="1.1" id="Layer_1" xmlns="http://www.w3.org/2000/svg" xmlns:xlink="http://www.w3.org/1999/xlink" x="0px"
	y="0px" viewBox="0 0 2661 1650" style="enable-background:new 0 0 2651 1640;" xml:space="preserve">
	<defs>
		<linearGradient id="logoGradient">
			<stop offset="0%" stop-color="var(--blue-l60)" />
			<stop offset="100%" stop-color="var(--purple-l50)" />
		</linearGradient>
	</defs>
	<path d="M500.77,240.66h-3.93h-6.56h-60.13c-11.89,0-23.1,5.6-30.23,15.12l-11.9,15.87C347.22,239.3,295.84,220,240.08,220
	C107.7,220,0,328.81,0,462.55c0,51.6,16.03,95.8,46.72,129.81C23.29,616.68,10,648.4,10,673.49c0,53.63,30,135.61,148.95,135.61
	c102.35,0,161.84-29.12,219.64-29.12c15.42,0,11.82,7.56,11.88,18.39c-0.22,99.86-45.09,107.16-191.5,107.16
	c-26.68,0-82.11-4.52-102.01-8.27c-3.22-0.61-6.34,1.39-7.19,4.55L70.2,973.47c-0.94,3.47,1.19,7.03,4.7,7.79
	c32.9,7.11,92.96,8.73,124.05,8.73c248.97,0,274.54-98.88,274.54-210.02c0-39.22-4.45-93.37-80.03-93.37
	c-63.89,0-132.38,36.12-216.85,36.12C108,722.73,88,704,88,672c0-13.64,6.61-26.44,16.25-36.35c37.7,19.01,83.97,28.94,135.83,28.94
	c66.22,0,123.32-16.19,165.12-46.8c49.04-35.93,74.96-89.61,74.96-155.24c0-49.59-14.82-95.75-40.2-134.21l9.08-12.11h47.79v-0.02
	h3.93c2.76,0,5-2.24,5-5v-65.57C505.77,242.9,503.53,240.66,500.77,240.66z M240.08,592.8c-45.87,0-152.56-12.58-152.56-129.07
	c0-94.8,68.44-171.93,152.56-171.93s152.56,77.12,152.56,171.93C392.64,580.22,285.95,592.8,240.08,592.8z" />
	<path d="M1131,241h-74h-2h-2c-2.76,0-5,2.24-5,5v74c0,2.76,2.24,5,5,5h2h2h32v294.5c-25.36,51.94-93.81,70.5-145,70.5
	c-19.59,0-149-6.19-149-126V283c0-23.2-18.8-42-42-42h-74h-2h-2c-2.76,0-5,2.24-5,5v74c0,2.76,2.24,5,5,5h2h2h37v239
	c0,110.81,68.5,206,228,206c58.34,0,105.27-13.01,141.09-35.38c0,23.82,0,47.13,0,51.92c0,89.46-46.98,116.23-194.07,116.23
	c-27.54,0-77.92-2.77-100.32-6.01c-6.57-0.95-10.59-0.76-12.75,8.05l-0.01,0.04l-0.01,0.04l-17.08,62.78
	c-1.74,7.34-0.82,11.67,8.36,13.73C803.11,989,877.33,990,891.02,990c250.21,0,278.58-120.83,281.63-200h0.35V283
	C1173,259.8,1154.2,241,1131,241z" />
	<path
		d="M671,675h-2v0h-39V43c0-23.2-18.8-42-42-42h-79h-2h-2c-2.76,0-5,2.24-5,5v74c0,2.76,2.24,5,5,5h2h2h37v590h-39v0h-2
	c-2.76,0-5,2.24-5,5v74c0,2.76,2.24,5,5,5h4c0,0,0,0,0,0H667c0,0,0,0,0,0h4c2.76,0,5-2.24,5-5v-74C676,677.24,673.76,675,671,675z" />
	<path d="M2647,250l-2.59-0.83l-0.03,0.01C2612.9,236.87,2575.85,230,2533.5,230c-71.87,0-121.1,25.18-153.5,60.35V283
	c0-23.2-18.8-42-42-42h-79h-2h-2c-2.76,0-5,2.24-5,5v74c0,2.76,2.24,5,5,5h2h2h37v240v111h-27v0h-2c-2.76,0-5,2.24-5,5v74
	c0,2.76,2.24,5,5,5h4c0,0,0,0,0,0H2417c0,0,0,0,0,0h4c2.76,0,5-2.24,5-5v-74c0-2.76-2.24-5-5-5h-2v0h-39V565V404.42
	c22.85-59.07,86.11-84.7,153.5-84.7c8.65,0,39.65,0.05,71.5,10.28c7,2,10,3,14-4l30-65C2652,255,2651,252,2647,250z" />
	<path d="M2238,676h-2v0h-26.25V436c0.08,0,0.17,0,0.25,0c0-114.81-73.5-206-228-206c-52.27,0-92.52,12.37-123,32.91V42
	c0-23.2-18.8-42-42-42h-79h-2h-2c-2.76,0-5,2.24-5,5v74c0,2.76,2.24,5,5,5h2h2h37v592h-39v0h-2c-2.76,0-5,2.24-5,5v74
	c0,2.76,2.24,5,5,5h4c0,0,0,0,0,0H1884c0,0,0,0,0,0h4c2.76,0,5-2.24,5-5v-74c0-2.76-2.24-5-5-5h-2v0h-27V356.6
	c36.17-42.63,95.53-52.6,123-52.6c19.59,0,143,9.19,143,132h-0.25v240H2086v0h-2c-2.76,0-5,2.24-5,5v74c0,2.76,2.24,5,5,5h4
	c0,0,0,0,0,0H2234c0,0,0,0,0,0h4c2.76,0,5-2.24,5-5v-74C2243,678.24,2240.76,676,2238,676z" />
	<path
		d="M1721.99,460c-0.48-133.51-104.79-230-230.49-230c-59.98,0-114.17,25.6-154.5,66.12V282c0-23.2-18.8-42-42-42h-79h-2h-2
	c-2.76,0-5,2.24-5,5v74c0,2.76,2.24,5,5,5h2h2h37v383v161v32h-37h-2h-2c-2.76,0-5,2.24-5,5v74c0,2.76,2.24,5,5,5h2h2h79
	c23.2,0,42-18.8,42-42v-74V710.14c31.83,36.2,80.71,59.86,153,59.86c154.5,0,232-91.19,232-206V460H1721.99z M1638,558
	c0,122.81-111,134-148,134c-55,0-151-24.19-151-144v-90.89c0-90.09,72.44-153.88,152.5-153.88S1638,369.94,1638,466.61V558z" />
	<path d="M2573.61,1327.19c-0.53-125.82-98.88-228.33-223.74-228.33c-0.18,0-0.36,0.02-0.55,0.03c-0.18-0.01-0.36-0.03-0.55-0.03
	c-125.2,0-223.75,103.06-223.75,229.35h0.14v101.93h0c0.4,109.7,65.74,208.86,223.74,208.86c0.17,0,0.34-0.01,0.51-0.01
	c0.17,0.01,0.34,0.01,0.51,0.01c158,0,223.34-99.15,223.74-208.86h0v-102.95H2573.61z M2349.93,1556.4c-0.17,0-0.34,0.01-0.51,0.02
	c-0.17-0.01-0.34-0.02-0.51-0.02c-54.65,0-140.16-8.22-140.16-127.27v-101.93h-0.12c0.46-89.01,60.9-155.57,140.15-155.57
	c0.18,0,0.36-0.02,0.55-0.03c0.18,0.01,0.36,0.03,0.55,0.03c79.55,0,140.16,67.07,140.16,156.59h0.06v100.92
	C2490.09,1548.17,2404.58,1556.4,2349.93,1556.4z" />
	<path d="M2078.54,1544.64l-36.55,0v-393.85c0-23.2-18.81-42-42-42h-85.46c-1.41,0-2.55,1.14-2.55,2.55v78.91
	c0,1.41,1.14,2.55,2.55,2.55h43.46v351.85l-38.36,0c-1.41,0-2.55,1.14-2.55,2.55v78.91c0,1.41,1.14,2.55,2.55,2.55h158.92
	c1.41,0,2.55-1.14,2.55-2.55v-78.91C2081.09,1545.79,2079.95,1544.64,2078.54,1544.64z" />
	<path d="M1938.43,1023.83c10.2,7.48,24.14,11.43,40.31,11.43s30.11-3.95,40.31-11.43c11.97-8.77,18.3-21.88,18.3-37.9
	c0-32.65-26.29-59.22-58.61-59.22c-32.32,0-58.61,26.56-58.61,59.22C1920.13,1001.95,1926.46,1015.06,1938.43,1023.83z" />
	<path d="M758.32,1108.73l-93.19,0V924.51c0-2.41-1.95-4.36-4.36-4.36h-75.44c-2.41,0-4.36,1.95-4.36,4.36v184.22l-55.04,0
	c-1.41,0-2.55,1.14-2.55,2.55v79.06c0,1.41,1.14,2.55,2.55,2.55l55.04,0v389.27c0,25.65,20.79,46.44,46.44,46.44h92.82
	c0.1,0,0.2-0.01,0.31-0.02c0.19,0.05,0.39,0.08,0.6,0.08h8.93c1.41,0,2.55-1.14,2.55-2.55v-79.06c0-1.41-1.14-2.55-2.55-2.55h-8.93
	c-0.04,0-0.08,0.01-0.12,0.01c-0.26-0.05-0.52-0.08-0.79-0.08h-50.74c-2.41,0-4.36-1.95-4.36-4.36v-347.19l93.19,0
	c1.41,0,2.55-1.14,2.55-2.55v-79.06C760.86,1109.87,759.72,1108.73,758.32,1108.73z" />
	<path d="M406.88,1329.37c-63.01,0-110.27,20.43-193.58,20.43c-67.68,0-77.11-18.57-77.11-50.13c0-25.32-6.99-118.97,183.68-118.97
	c58.91,0,107.84,22.84,125.84,26.91c6.47,1.47,10.6,0.76,12.75-8.05l0.01-0.04l0.01-0.04l17.09-62.8
	c1.74-7.34,0.42-10.35-8.37-13.73c-17.07-6.58-84.34-24.41-147.33-24.41C62.33,1098.55,55,1289.15,55,1316.74
	c0,52.1,29.61,113.05,135.87,113.05c100.95,0,149.42-13.43,206.42-13.43c15.21,0,11.65,7.45,11.72,18.14
	c-0.22,98.49-53,120.98-183.77,120.98c-26.31,0-121.75-4.45-141.38-8.15c-3.18-0.6-6.25,1.37-7.09,4.49l-19.29,70.68
	c-0.92,3.43,1.17,6.94,4.64,7.69c32.45,7.02,132.46,8.61,163.12,8.61c224.04,0,260.57-107.71,260.57-217.33
	C485.81,1382.78,481.43,1329.37,406.88,1329.37z" />
	<path d="M1812.64,952.47h43.16c1.41,0,2.55-1.14,2.55-2.55v-78.37c0-1.41-1.14-2.55-2.55-2.55h-84.89
	c-23.05,0-41.73,18.68-41.73,41.73l-0.16,251.69c-40.11-39.23-93.43-63.89-152.31-63.89c-125.76,0-230.12,96.53-230.6,230.11h-0.01
	v104.05c0,114.86,77.54,206.1,232.11,206.1c70.76,0,119.09-22.66,150.98-57.55v5.63c0,23.05,18.68,41.73,41.73,41.73h84.89
	c1.41,0,2.55-1.14,2.55-2.55v-78.37c0-1.41-1.14-2.55-2.55-2.55h-43.16V952.47z M1578.2,1560.75c-37.02,0-148.07-11.2-148.07-134.06
	v-91.43c0-96.71,66.47-163.46,146.57-163.46c78.5,0,149.67,61.3,152.48,148.6v102.67
	C1725.82,1537.41,1632.23,1560.75,1578.2,1560.75z" />
	<path d="M1312.95,1189.64v-78.37c0-1.41-1.14-2.55-2.55-2.55h-84.89c-23.05,0-41.73,18.69-41.73,41.73l0.01,360.86
	c-36.11,42.98-95.75,53.01-123.3,53.01c-19.58,0-142.89-9.18-142.89-131.9h0.25l-0.91-239.97h43.47c1.41,0,2.55-1.14,2.55-2.55
	v-78.93c0-1.41-1.14-2.55-2.55-2.55h-85.57c-23.2,0-42.01,18.81-42.01,42.01l0.01,291.09c3.81,110.4,77.39,196.73,227.66,196.73
	c54.46,0,95.85-13.44,126.75-35.56c6.46,14.9,21.28,25.32,38.55,25.32l82.16-0.04c2.76,0,5-2.24,5-5v-74c0-2.76-2.24-5-5-5
	l-40.16,0.03l-0.55-351.84h43.16C1311.81,1192.19,1312.95,1191.05,1312.95,1189.64z" />
</svg>